<svg width="73" height="73" viewBox="0 0 73 73" fill="none" xmlns="http://www.w3.org/2000/svg">
<g id="truck 1">
<g id="Group">
<path id="Vector" d="M69.0356 31.2419C68.9235 31.0966 68.8154 30.9564 68.7123 30.8205C67.4255 29.1249 66.3852 27.2164 65.4675 25.5326C64.5676 23.8816 63.7177 22.3221 62.7897 21.2437C60.7192 18.8377 58.7712 17.6683 56.834 17.6683H47.2684C47.2593 17.6685 46.3455 17.6796 45.2457 17.6796H43.6859C42.571 17.6796 41.5987 18.4366 41.3215 19.5204L41.3086 19.571V40.6915L41.3109 40.7349C41.3121 40.7477 41.3358 41.0502 41.0972 41.3105C40.8341 41.5979 40.329 41.7498 39.6364 41.7498H2.37811C1.06679 41.7496 0 42.7533 0 43.9868V51.677C0 52.9106 1.06679 53.9142 2.37811 53.9142H10.561C10.9897 58.8128 15.1121 62.669 20.121 62.669C25.1299 62.669 29.2526 58.8128 29.6812 53.9142H43.3762C43.8049 58.8128 47.9274 62.669 52.9362 62.669C57.9451 62.669 62.0678 58.8128 62.4964 53.9142H68.7206C71.0801 53.9142 72.9998 51.9946 72.9998 49.6353V42.2929C73 36.3835 70.6143 33.2892 69.0356 31.2419ZM56.5154 53.0712C56.5154 55.0442 54.9098 56.6492 52.9362 56.6492C50.9633 56.6492 49.3582 55.0442 49.3582 53.0712C49.3582 51.0983 50.9633 49.493 52.9362 49.493C54.9098 49.493 56.5154 51.0981 56.5154 53.0712ZM64.7454 34.4422C64.6706 34.5657 64.4571 34.619 64.1328 34.5982L47.688 34.5974V21.1835H54.7976C56.7105 21.1835 58.0661 22.0162 59.4766 24.0576C60.4145 25.4154 62.8981 29.6903 63.0247 29.9085C63.1129 30.0788 63.2036 30.2518 63.2951 30.4266C64.0116 31.7961 65.0947 33.8652 64.7454 34.4422ZM20.121 49.493C22.0946 49.493 23.7002 51.0983 23.7002 53.0712C23.7002 55.0442 22.0946 56.6492 20.121 56.6492C18.1481 56.6492 16.543 55.0442 16.543 53.0712C16.543 51.0981 18.1481 49.493 20.121 49.493Z" fill="#18DE6E"/>
<path id="Vector_2" d="M5.01218 38.3475H16.2852C17.4279 38.3475 18.3574 37.418 18.3574 36.2753V27.9863C18.3574 26.8436 17.4279 25.9141 16.2852 25.9141H5.01218C3.86947 25.9141 2.93994 26.8436 2.93994 27.9863V36.2753C2.93994 37.418 3.86963 38.3475 5.01218 38.3475Z" fill="#18DE6E"/>
<path id="Vector_3" d="M23.7453 38.3475H35.0183C36.161 38.3475 37.0905 37.418 37.0905 36.2753V27.9863C37.0905 26.8436 36.161 25.9141 35.0183 25.9141H23.7453C22.6025 25.9141 21.673 26.8436 21.673 27.9863V36.2753C21.673 37.418 22.6027 38.3475 23.7453 38.3475Z" fill="#18DE6E"/>
<path id="Vector_4" d="M5.01218 22.7643H16.2852C17.4279 22.7643 18.3574 21.8347 18.3574 20.692V12.4031C18.3574 11.2603 17.4279 10.3308 16.2852 10.3308H5.01218C3.86947 10.3308 2.93994 11.2603 2.93994 12.4031V20.692C2.93994 21.8347 3.86963 22.7643 5.01218 22.7643Z" fill="#18DE6E"/>
<path id="Vector_5" d="M23.7453 22.7643H35.0183C36.161 22.7643 37.0905 21.8347 37.0905 20.692V12.4031C37.0905 11.2603 36.161 10.3308 35.0183 10.3308H23.7453C22.6025 10.3308 21.673 11.2603 21.673 12.4031V20.692C21.673 21.8347 22.6027 22.7643 23.7453 22.7643Z" fill="#18DE6E"/>
</g>
</g>
</svg>
