<svg width="76" height="76" viewBox="0 0 76 76" fill="none" xmlns="http://www.w3.org/2000/svg">
<g id="repairing-service 1" clip-path="url(#clip0_40_71)">
<path id="Vector" d="M75.7608 33.781C75.6408 32.7128 74.3948 31.9092 73.3174 31.9092C69.8354 31.9092 66.7453 29.8655 65.4493 26.7024C64.1264 23.4633 64.98 19.6865 67.5742 17.3066C68.3913 16.5595 68.4908 15.3086 67.8059 14.4403C66.0232 12.177 63.9979 10.1324 61.7859 8.36048C60.9205 7.66632 59.6489 7.76295 58.8979 8.59416C56.633 11.1026 52.5644 12.0347 49.4203 10.723C46.1496 9.34682 44.0852 6.0315 44.288 2.47296C44.3548 1.35449 43.537 0.382602 42.4225 0.252776C39.5837 -0.0758965 36.72 -0.085428 33.8731 0.230427C32.7727 0.352036 31.9556 1.30091 31.9921 2.40525C32.1153 5.92896 30.0276 9.18577 26.7885 10.5126C23.6822 11.7816 19.6419 10.8564 17.3816 8.37001C16.6345 7.55096 15.3852 7.45038 14.5139 8.12975C12.2369 9.91674 10.1659 11.9627 8.36673 14.2076C7.66567 15.0802 7.76921 16.3449 8.59319 17.0946C11.2387 19.4903 12.0916 23.2996 10.7181 26.5765C9.40665 29.7005 6.16298 31.713 2.44996 31.713C1.24505 31.6742 0.387543 32.4837 0.25443 33.5795C-0.0795014 36.4334 -0.0831168 39.3428 0.238325 42.22C0.358291 43.2928 1.6411 44.0895 2.73032 44.0895C6.04006 44.0054 9.21569 46.053 10.5498 49.296C11.8773 52.5351 11.0227 56.3102 8.42425 58.6934C7.61144 59.4405 7.50758 60.6885 8.19385 61.5558C9.95849 63.805 11.9857 65.8509 14.2043 67.6379C15.0753 68.3393 16.342 68.2411 17.0969 67.4089C19.3707 64.8945 23.4387 63.964 26.5699 65.2784C29.8501 66.6509 31.9135 69.9659 31.712 73.5255C31.646 74.6439 32.4657 75.6188 33.5763 75.7456C35.029 75.9156 36.4893 75.9997 37.9542 75.9997C39.3445 75.9997 40.7351 75.9238 42.1257 75.769C43.2274 75.6474 44.0432 74.6975 44.006 73.5928C43.8788 70.0708 45.9712 66.8136 49.2063 65.4894C52.3333 64.2122 56.3556 65.1469 58.6172 67.6297C59.3682 68.4471 60.6099 68.5464 61.4849 67.8697C63.758 66.0873 65.825 64.0423 67.632 61.7915C68.3337 60.9205 68.2342 59.6541 67.4056 58.9031C64.7607 56.5091 63.9032 52.6981 65.2767 49.4245C66.5678 46.3426 69.6908 44.2732 73.0499 44.2732L73.5199 44.2857C74.6104 44.3741 75.6125 43.5344 75.7443 42.4218C76.0799 39.5653 76.0835 36.6592 75.7608 33.781ZM37.9999 59.9072C25.9004 59.9072 16.0925 50.0993 16.0925 38.0002C16.0925 25.9011 25.9008 16.0932 37.9999 16.0932C50.099 16.0932 59.9072 25.9011 59.9072 38.0002C59.9072 42.107 58.7749 45.9482 56.8085 49.2329L47.2159 39.6399C47.9103 38.0025 48.2771 36.2273 48.2768 34.3953C48.2768 30.8078 46.8796 27.4353 44.3426 24.899C41.8062 22.3626 38.4337 20.9657 34.8469 20.9657C33.6499 20.9657 32.4585 21.1248 31.3058 21.4387C30.801 21.5764 30.3881 21.9925 30.2537 22.4983C30.1163 23.0157 30.2711 23.5458 30.6754 23.9504C30.6754 23.9504 35.4112 28.7227 36.9958 30.3069C37.1618 30.4729 37.1614 30.869 37.1381 31.0116L37.1233 31.1158C36.9636 32.8578 36.6556 34.9488 36.4015 35.7524C36.3674 35.7863 36.3351 35.8148 36.3003 35.8497C36.2638 35.8862 36.2303 35.9213 36.1951 35.9575C35.381 36.2188 33.2578 36.5304 31.4882 36.6888L31.4885 36.6793L31.409 36.6993C31.3949 36.7009 31.3686 36.7029 31.3337 36.7029C31.1424 36.7029 30.8611 36.6493 30.6054 36.394C28.9561 34.7447 24.406 30.2271 24.406 30.2271C23.9978 29.8202 23.579 29.7347 23.3 29.7347C22.6495 29.7347 22.0671 30.2047 21.8837 30.8788C20.6312 35.5141 21.959 40.5001 25.3499 43.8913C27.8869 46.428 31.2598 47.8249 34.8472 47.8249C36.6793 47.8249 38.4544 47.4584 40.0915 46.7639L49.7884 56.4608C46.384 58.6392 42.3413 59.9072 37.9999 59.9072Z" fill="#18DE6E"/>
</g>
<defs>
<clipPath id="clip0_40_71">
<rect width="76" height="76" fill="white"/>
</clipPath>
</defs>
</svg>
