<svg width="65" height="65" viewBox="0 0 65 65" fill="none" xmlns="http://www.w3.org/2000/svg">
<path d="M55.617 34.6989H50.5901C51.1025 36.1017 51.3825 37.6157 51.3825 39.1936V58.1921C51.3825 58.85 51.268 59.4815 51.0596 60.0688H59.3701C62.4745 60.0688 65 57.5431 65 54.4389V44.0819C65.0001 38.9082 60.7909 34.6989 55.617 34.6989Z" fill="white"/>
<path d="M13.6177 39.1937C13.6177 37.6157 13.8976 36.1019 14.41 34.699H9.38312C4.20927 34.699 0 38.9083 0 44.0822V54.4391C0 57.5434 2.52548 60.069 5.62987 60.069H13.9405C13.7322 59.4815 13.6177 58.8501 13.6177 58.1923V39.1937Z" fill="white"/>
<path d="M38.2461 29.8105H26.754C21.5802 29.8105 17.3709 34.0198 17.3709 39.1937V58.1922C17.3709 59.2286 18.2111 60.0689 19.2475 60.0689H45.7526C46.789 60.0689 47.6292 59.2287 47.6292 58.1922V39.1937C47.6292 34.0198 43.42 29.8105 38.2461 29.8105Z" fill="white"/>
<path d="M32.5 4.93088C26.2778 4.93088 21.2157 9.99302 21.2157 16.2154C21.2157 20.4359 23.5451 24.122 26.9853 26.0573C28.617 26.9752 30.4982 27.4998 32.5 27.4998C34.5018 27.4998 36.383 26.9752 38.0148 26.0573C41.4551 24.122 43.7844 20.4358 43.7844 16.2154C43.7844 9.99314 38.7223 4.93088 32.5 4.93088Z" fill="white"/>
<path d="M12.6849 15.4488C8.03145 15.4488 4.2457 19.2346 4.2457 23.888C4.2457 28.5415 8.03145 32.3273 12.6849 32.3273C13.8653 32.3273 14.9894 32.0828 16.0105 31.6432C17.7759 30.8832 19.2315 29.5377 20.1323 27.8524C20.7645 26.6696 21.1241 25.3202 21.1241 23.888C21.1241 19.2347 17.3384 15.4488 12.6849 15.4488Z" fill="white"/>
<path d="M52.3152 15.4488C47.6617 15.4488 43.876 19.2346 43.876 23.888C43.876 25.3203 44.2356 26.6697 44.8679 27.8524C45.7686 29.5379 47.2242 30.8833 48.9897 31.6432C50.0107 32.0828 51.1348 32.3273 52.3152 32.3273C56.9687 32.3273 60.7544 28.5415 60.7544 23.888C60.7544 19.2346 56.9687 15.4488 52.3152 15.4488Z" fill="white"/>
</svg>
