<svg width="55" height="55" viewBox="0 0 55 55" fill="none" xmlns="http://www.w3.org/2000/svg">
<g clip-path="url(#clip0_24_34)">
<path d="M14.6094 19.3359C10.1672 19.3359 6.44531 22.9504 6.44531 27.3926C6.44531 31.8348 10.1672 35.4492 14.6094 35.4492C19.0516 35.4492 22.7734 31.8348 22.7734 27.3926C22.7734 22.9504 19.0516 19.3359 14.6094 19.3359Z" fill="white"/>
<path d="M40.498 0C32.5012 0 25.9961 6.50515 25.9961 14.502C25.9961 16.9961 26.6334 19.4304 27.8434 21.5893L26.0795 26.8828C25.8922 27.4413 26.026 28.055 26.4257 28.4877C26.8358 28.9313 27.4483 29.0958 27.9977 28.9551L33.9819 27.4603C35.993 28.4721 38.2321 29.0039 40.498 29.0039C48.4949 29.0039 55 22.4988 55 14.502C55 6.50515 48.4949 0 40.498 0ZM42.1094 20.9473C42.1094 21.8379 41.3887 22.5586 40.498 22.5586C39.6074 22.5586 38.8867 21.8379 38.8867 20.9473V14.502C38.8867 13.6113 39.6074 12.8906 40.498 12.8906C41.3887 12.8906 42.1094 13.6113 42.1094 14.502V20.9473ZM40.498 11.2793C39.6082 11.2793 38.8867 10.5579 38.8867 9.66797C38.8867 8.77809 39.6082 8.05664 40.498 8.05664C41.3879 8.05664 42.1094 8.77809 42.1094 9.66797C42.1094 10.5579 41.3879 11.2793 40.498 11.2793Z" fill="white"/>
<path d="M23.0646 34.9087C20.9985 37.2014 17.9308 38.6719 14.6094 38.6719C11.288 38.6719 8.22024 37.2014 6.1542 34.9087C2.44353 37.5379 0 41.8446 0 46.7285V53.3887C0 54.2793 0.720693 55 1.61133 55H27.6074C28.4981 55 29.2188 54.2793 29.2188 53.3887V46.7285C29.2188 41.8446 26.7752 37.5379 23.0646 34.9087Z" fill="white"/>
</g>
<defs>
<clipPath id="clip0_24_34">
<rect width="55" height="55" fill="white"/>
</clipPath>
</defs>
</svg>
