<svg width="28" height="28" viewBox="0 0 28 28" fill="none" xmlns="http://www.w3.org/2000/svg">
<g id="chassis 1">
<g id="Group">
<g id="Group_2">
<path id="Vector" d="M21.5834 8.16665H22.75C23.715 8.16665 24.5 7.38166 24.5 6.41665V1.75C24.5 0.784984 23.715 0 22.75 0H21.5834C20.6183 0 19.8334 0.784984 19.8334 1.75V2.96718L15.5854 3.35327C15.3077 2.75308 14.7037 2.33335 14 2.33335C13.2963 2.33335 12.6924 2.75302 12.4146 3.35327L8.16665 2.96718V1.75C8.16665 0.784984 7.38166 0 6.41665 0H5.25C4.28498 0 3.5 0.784984 3.5 1.75V6.41665C3.5 7.38166 4.28498 8.16665 5.25 8.16665H6.41665C7.38166 8.16665 8.16665 7.38166 8.16665 6.41665V5.19952L12.4146 4.81343C12.5162 5.03305 12.6626 5.22545 12.8411 5.38459L13.2662 11.697C13.0187 11.7645 12.8332 11.9809 12.8332 12.25V15.75C12.8332 16.0091 13.0046 16.2212 13.2381 16.2974L12.8419 21.4481C12.4818 21.7689 12.25 22.2307 12.25 22.75V23.1718L8.16665 22.8005V21.5833C8.16665 20.6183 7.38166 19.8333 6.41665 19.8333H5.25C4.28498 19.8333 3.5 20.6183 3.5 21.5833V26.25C3.5 27.215 4.28498 28 5.25 28H6.41665C7.38166 28 8.16665 27.215 8.16665 26.25V25.0329L12.25 24.6615V25.0833C12.25 26.0483 13.035 26.8333 14 26.8333C14.965 26.8333 15.75 26.0483 15.75 25.0833V24.6615L19.8334 25.0328V26.25C19.8334 27.215 20.6183 28 21.5834 28H22.75C23.715 28 24.5 27.215 24.5 26.25V21.5834C24.5 20.6183 23.715 19.8334 22.75 19.8334H21.5834C20.6183 19.8334 19.8334 20.6183 19.8334 21.5834V22.8005L15.75 23.1718V22.75C15.75 22.2306 15.5181 21.7686 15.1577 21.4478L14.7577 16.2982C14.9932 16.2232 15.1666 16.0106 15.1666 15.7501V12.2501C15.1666 11.9826 14.9834 11.7669 14.7382 11.6979L15.159 5.38453C15.3374 5.22539 15.4837 5.03305 15.5853 4.81354L19.8333 5.19963V6.41676C19.8334 7.38166 20.6183 8.16665 21.5834 8.16665Z" fill="#0F0F10"/>
</g>
</g>
</g>
</svg>
