<svg width="28" height="28" viewBox="0 0 28 28" fill="none" xmlns="http://www.w3.org/2000/svg">
<g id="distance 1" clip-path="url(#clip0_34_0)">
<g id="Group">
<path id="Vector" d="M23.1812 12.25C20.5278 12.2527 18.3709 14.4266 18.3736 17.0964C18.3747 18.5549 19.1015 20.2174 20.5338 22.0385C21.5559 23.3384 22.5687 24.2419 22.6114 24.2796C22.9437 24.5746 23.4439 24.5726 23.774 24.2785C23.8167 24.2408 24.8278 23.3352 25.8478 22.0336C26.942 20.6367 27.9986 18.8548 27.9986 17.0871C27.9964 14.4224 25.8557 12.25 23.1812 12.25ZM21.8736 17.0636C21.8725 16.3387 22.4591 15.7511 23.1845 15.75C24.3522 15.75 24.9366 17.1676 24.1147 17.9895C23.2968 18.8092 21.8736 18.2383 21.8736 17.0636Z" fill="#0F0F10"/>
<path id="Vector_2" d="M4.23371 12.0291C4.56528 12.3234 5.0643 12.3239 5.39636 12.0291C5.43902 11.9913 6.45128 11.0868 7.4723 9.78633C8.90238 7.96359 9.62753 6.30055 9.62753 4.84148C9.62753 2.17219 7.46847 0 4.81503 0C2.1616 0 0.00253296 2.17219 0.00253296 4.84148C0.00253296 6.30055 0.727689 7.96359 2.15777 9.78633C3.17878 11.0868 4.19105 11.9913 4.23371 12.0291ZM4.81503 3.5C5.53855 3.5 6.12753 4.08898 6.12753 4.8125C6.12753 5.53602 5.53855 6.125 4.81503 6.125C4.09152 6.125 3.50253 5.53602 3.50253 4.8125C3.50253 4.08898 4.09152 3.5 4.81503 3.5Z" fill="#0F0F10"/>
<path id="Vector_3" d="M24.508 26.6863C24.508 27.8851 23.0213 28.4585 22.2182 27.5624H3.93956C1.76847 27.5624 0.0020752 25.796 0.0020752 23.625C0.0020752 21.4539 1.76847 19.6875 3.93956 19.6875H12.7169C13.908 19.6875 14.877 18.7184 14.877 17.5273C14.877 16.3362 13.908 15.3672 12.7169 15.3672H5.79291C5.52877 15.6587 5.17719 15.8047 4.81456 15.8047C3.65103 15.8047 3.06336 14.3873 3.88542 13.5652C4.42584 13.0236 5.30379 13.0633 5.79236 13.6172H12.7169C14.8732 13.6172 16.627 15.371 16.627 17.5273C16.627 19.6836 14.8732 21.4375 12.7169 21.4375H3.93956C2.73316 21.4375 1.75207 22.4186 1.75207 23.625C1.75207 24.8314 2.73316 25.8124 3.93956 25.8124C23.6279 25.8124 22.1893 25.8381 22.2669 25.7605C23.0868 24.9387 24.5071 25.5159 24.508 26.6863Z" fill="#0F0F10"/>
</g>
</g>
<defs>
<clipPath id="clip0_34_0">
<rect width="28" height="28" fill="white"/>
</clipPath>
</defs>
</svg>
