<svg width="28" height="28" viewBox="0 0 28 28" fill="none" xmlns="http://www.w3.org/2000/svg">
<g id="speedometer 1" clip-path="url(#clip0_34_5)">
<g id="Group">
<path id="Vector" d="M14.066 19.4916C14.6482 19.4916 15.1202 19.0196 15.1202 18.4374C15.1202 17.8552 14.6482 17.3832 14.066 17.3832C13.4838 17.3832 13.0118 17.8552 13.0118 18.4374C13.0118 19.0196 13.4838 19.4916 14.066 19.4916Z" fill="#0F0F10"/>
<path id="Vector_2" d="M23.183 22.3935L24.0044 20.9707L26.505 22.4144C27.3618 20.7291 27.8696 18.8795 27.9908 16.9647H25.0778V15.3217H28C27.8993 13.3905 27.4085 11.5319 26.5659 9.8368L24.0044 11.3157L23.183 9.89286L25.7485 8.41165C25.2219 7.6073 24.6093 6.85092 23.9136 6.15529C23.2425 5.48417 22.5151 4.88983 21.7424 4.37593L20.2503 6.96029L18.8275 6.13883L20.3231 3.54834C18.6254 2.68876 16.7606 2.18482 14.8215 2.07347V5.06543H13.1785V2.07336C11.2394 2.18465 9.37459 2.68865 7.67687 3.54818L9.17246 6.13867L7.74966 6.96013L6.25762 4.37582C5.48494 4.88972 4.75754 5.48406 4.08641 6.15518C3.39079 6.85081 2.77813 7.60719 2.25154 8.41154L4.81704 9.89275L3.99558 11.3156L1.43413 9.83669C0.5915 11.5319 0.100734 13.3905 0 15.3216H2.92217V16.9646H0.0091875C0.130375 18.8795 0.638203 20.729 1.49494 22.4144L3.99552 20.9706L4.81698 22.3934L2.32438 23.8325C2.7551 24.4786 3.24188 25.0926 3.7823 25.6677L4.0256 25.9266H23.9742L24.2175 25.6677C24.7579 25.0926 25.2447 24.4786 25.6754 23.8325L23.183 22.3935ZM14.066 21.1346C12.5788 21.1346 11.3688 19.9247 11.3688 18.4375C11.3688 17.2366 12.1579 16.2169 13.2445 15.8686V10.7201H14.8875V15.8686C15.9742 16.217 16.7633 17.2366 16.7633 18.4375C16.7632 19.9247 15.5532 21.1346 14.066 21.1346ZM21.076 16.0688C21.076 12.2035 17.9313 9.05887 14.066 9.05887C10.2007 9.05887 7.056 12.2035 7.056 16.0688H5.41308C5.41308 11.2976 9.29474 7.4159 14.066 7.4159C18.8373 7.4159 22.7189 11.2976 22.7189 16.0688H21.076Z" fill="#0F0F10"/>
</g>
</g>
<defs>
<clipPath id="clip0_34_5">
<rect width="28" height="28" fill="white"/>
</clipPath>
</defs>
</svg>
