<svg width="28" height="28" viewBox="0 0 28 28" fill="none" xmlns="http://www.w3.org/2000/svg">
<g id="calendar 1">
<g id="Group">
<path id="Vector" d="M25.8443 3.84886H23.9657V5.51433C23.9657 6.70553 23.0005 7.67007 21.8099 7.67007C20.6187 7.67007 19.6542 6.70553 19.6542 5.51433V3.84886H16.1557V5.51433C16.1557 6.70553 15.1918 7.67007 14 7.67007C12.8082 7.67007 11.8443 6.70553 11.8443 5.51433V3.84886H8.3458V5.51433C8.3458 6.70553 7.38126 7.67007 6.19006 7.67007C4.99947 7.67007 4.03432 6.70553 4.03432 5.51433V3.84886H2.15574C1.58416 3.84886 1.03599 4.07552 0.631324 4.47957C0.227277 4.88423 0 5.43241 0 6.0046V24.4214C0 25.6126 0.965156 26.5772 2.15574 26.5772H25.8443C27.0361 26.5772 28 25.6126 28 24.4214V6.0046C28 4.81402 27.0361 3.84886 25.8443 3.84886ZM23.6885 10.6616V13.7874H19.6209V10.6616H23.6885ZM9.34298 14.7514H13.5177V17.7152H9.34298V14.7514ZM8.37967 17.714H4.3121V14.7501H8.38029L8.37967 17.714ZM13.5183 18.6779V22.2657H9.3436V18.6779H13.5183ZM14.4829 18.6779H18.6564V22.2657H14.4829V18.6779ZM14.4829 17.714V14.7501H18.6564V17.714H14.4829ZM19.6203 14.7514H23.6879V17.7152H19.6203V14.7514ZM18.6576 10.6616V13.7874H14.4829V10.6616H18.6576ZM13.5183 10.6616V13.7874H9.3436V10.661L13.5183 10.6616ZM8.37967 10.661V13.7874H4.3121V10.661H8.37967ZM4.3121 18.6779H8.38029V22.2657H4.3121V18.6779ZM19.6203 22.2657V18.6779H23.6879V22.2657H19.6203ZM4.95821 5.51433V2.65458C4.95821 1.9746 5.51008 1.42273 6.19006 1.42273C6.87066 1.42273 7.42191 1.9746 7.42191 2.65458V5.51433C7.42191 6.19431 6.87066 6.74618 6.19006 6.74618C5.51069 6.74618 4.95821 6.19431 4.95821 5.51433ZM12.7681 5.51433V2.65458C12.7681 1.9746 13.32 1.42273 14 1.42273C14.68 1.42273 15.2319 1.9746 15.2319 2.65458V5.51433C15.2319 6.19431 14.68 6.74618 14 6.74618C13.32 6.74618 12.7681 6.19431 12.7681 5.51433ZM20.5787 5.51433V2.65458C20.5787 1.9746 21.1306 1.42273 21.8106 1.42273C22.4905 1.42273 23.0424 1.9746 23.0424 2.65458V5.51433C23.0424 6.19431 22.4905 6.74618 21.8106 6.74618C21.1293 6.74618 20.5787 6.19431 20.5787 5.51433Z" fill="#0F0F10"/>
</g>
</g>
</svg>
