<svg width="76.000000" height="76.000000" viewBox="0 0 76 76" fill="none" xmlns="http://www.w3.org/2000/svg" xmlns:xlink="http://www.w3.org/1999/xlink">
	<desc>
			Created with Pixso.
	</desc>
	<defs>
		<clipPath id="clip36_58">
			<rect id="eco 1" width="76.000000" height="76.000000" fill="white" fill-opacity="0"/>
		</clipPath>
	</defs>
	<rect id="eco 1" width="76.000000" height="76.000000" fill="#FFFFFF" fill-opacity="0"/>
	<g clip-path="url(#clip36_58)">
		<path id="Vector" d="M23.75 23.42L41.64 41.31C42.05 36.91 42.87 20.79 34.39 12.31C31.51 9.43 27.7 7.58 23.75 6.4L23.75 23.42Z" fill="#18DE6E" fill-opacity="1.000000" fill-rule="nonzero"/>
		<path id="Vector" d="M1.75 7.72C1.54 10.88 1.24 20.29 4.22 28.5L22.53 28.5L1.75 7.72Z" fill="#18DE6E" fill-opacity="1.000000" fill-rule="nonzero"/>
		<path id="Vector" d="M19.3 18.97L19.3 5.35C13.08 4.21 7.25 4.42 4.9 4.57L19.3 18.97Z" fill="#18DE6E" fill-opacity="1.000000" fill-rule="nonzero"/>
		<path id="Vector" d="M26.99 32.95L6.26 32.95C7.16 34.51 8.22 35.95 9.49 37.21C15.83 43.56 26.44 44.69 33.23 44.69C35.52 44.69 37.38 44.56 38.49 44.46L26.99 32.95Z" fill="#18DE6E" fill-opacity="1.000000" fill-rule="nonzero"/>
		<path id="Vector" d="M73.63 17.67C74.76 11.45 74.56 5.62 74.4 3.27L60 17.67L73.63 17.67Z" fill="#18DE6E" fill-opacity="1.000000" fill-rule="nonzero"/>
		<path id="Vector" d="M50.47 20.9L71.25 0.12C68.09 -0.09 58.68 -0.39 50.47 2.58L50.47 20.9Z" fill="#18DE6E" fill-opacity="1.000000" fill-rule="nonzero"/>
		<path id="Vector" d="M55.55 22.12L46.16 31.51C46.41 34.98 46.33 38.05 46.2 40.15C52.79 39.78 61.27 38.15 66.66 32.76C69.54 29.88 71.39 26.07 72.57 22.12L55.55 22.12Z" fill="#18DE6E" fill-opacity="1.000000" fill-rule="nonzero"/>
		<path id="Vector" d="M45.47 25.9L46.02 25.35L46.02 4.63C44.46 5.53 43.02 6.59 41.76 7.85C40.79 8.82 39.95 9.89 39.21 11.03C41.11 13.39 42.65 16.23 43.8 19.5C44.5 21.48 45.06 23.62 45.47 25.9Z" fill="#18DE6E" fill-opacity="1.000000" fill-rule="nonzero"/>
		<path id="Vector" d="M12.29 60.51L17.93 60.51C18.89 60.51 19.45 61.43 19.45 62.44C19.45 63.29 18.97 64.29 17.93 64.29L12.29 64.29L12.29 71.75L22.79 71.75C23.75 71.75 24.31 72.75 24.31 73.9C24.31 74.9 23.83 75.98 22.79 75.98L9.58 75.98C8.5 75.98 7.46 75.46 7.46 74.46L7.46 50.38C7.46 49.38 8.5 48.86 9.58 48.86L22.79 48.86C23.83 48.86 24.31 49.93 24.31 50.93C24.31 52.08 23.75 53.09 22.79 53.09L12.29 53.09L12.29 60.51Z" fill="#18DE6E" fill-opacity="1.000000" fill-rule="nonzero"/>
		<path id="Vector" d="M37.45 52.88C34.96 52.88 33.55 54.25 33.55 57.15L33.55 67.5C33.55 70.39 34.96 71.76 37.52 71.76C40.9 71.76 41.19 69.35 41.3 67.79C41.38 66.64 42.42 66.27 43.68 66.27C45.35 66.27 46.13 66.76 46.13 68.65C46.13 73.14 42.45 75.99 37.26 75.99C32.58 75.99 28.73 73.69 28.73 67.5L28.73 57.15C28.73 50.95 32.62 48.65 37.3 48.65C42.45 48.65 46.13 51.39 46.13 55.7C46.13 57.63 45.35 58.07 43.72 58.07C42.34 58.07 41.34 57.66 41.3 56.55C41.23 55.4 40.97 52.88 37.45 52.88Z" fill="#18DE6E" fill-opacity="1.000000" fill-rule="nonzero"/>
		<path id="Vector" d="M50.95 67.5L50.95 57.15C50.95 50.95 54.74 48.65 59.63 48.65C64.53 48.65 68.35 50.95 68.35 57.15L68.35 67.5C68.35 73.69 64.53 75.99 59.63 75.99C54.74 75.99 50.95 73.69 50.95 67.5ZM63.53 57.15C63.53 54.21 62.05 52.88 59.63 52.88C57.19 52.88 55.78 54.21 55.78 57.15L55.78 67.5C55.78 70.43 57.19 71.76 59.63 71.76C62.05 71.76 63.53 70.43 63.53 67.5L63.53 57.15Z" fill="#18DE6E" fill-opacity="1.000000" fill-rule="nonzero"/>
	</g>
</svg>
