<svg width="73.000000" height="73.000000" viewBox="0 0 73 73" fill="none" xmlns="http://www.w3.org/2000/svg" xmlns:xlink="http://www.w3.org/1999/xlink">
	<desc>
			Created with Pixso.
	</desc>
	<defs>
		<clipPath id="clip36_103">
			<rect id="truck 1" width="73.000000" height="73.000000" fill="white" fill-opacity="0"/>
		</clipPath>
	</defs>
	<rect id="truck 1" width="73.000000" height="73.000000" fill="#FFFFFF" fill-opacity="0"/>
	<g clip-path="url(#clip36_103)">
		<path id="Vector" d="M69.03 31.24C68.92 31.09 68.81 30.95 68.71 30.82C67.42 29.12 66.38 27.21 65.46 25.53C64.56 23.88 63.71 22.32 62.78 21.24C60.71 18.83 58.77 17.66 56.83 17.66L47.26 17.66C47.25 17.66 46.34 17.67 45.24 17.67L43.68 17.67C42.57 17.67 41.59 18.43 41.32 19.52L41.3 19.57L41.3 40.69L41.31 40.73C41.31 40.74 41.33 41.05 41.09 41.31C40.83 41.59 40.32 41.74 39.63 41.74L2.37 41.74C1.06 41.74 0 42.75 0 43.98L0 51.67C0 52.91 1.06 53.91 2.37 53.91L10.56 53.91C10.98 58.81 15.11 62.66 20.12 62.66C25.12 62.66 29.25 58.81 29.68 53.91L43.37 53.91C43.8 58.81 47.92 62.66 52.93 62.66C57.94 62.66 62.06 58.81 62.49 53.91L68.72 53.91C71.08 53.91 72.99 51.99 72.99 49.63L72.99 42.29C73 36.38 70.61 33.28 69.03 31.24ZM56.51 53.07C56.51 55.04 54.9 56.64 52.93 56.64C50.96 56.64 49.35 55.04 49.35 53.07C49.35 51.09 50.96 49.49 52.93 49.49C54.9 49.49 56.51 51.09 56.51 53.07ZM64.74 34.44C64.67 34.56 64.45 34.61 64.13 34.59L47.68 34.59L47.68 21.18L54.79 21.18C56.71 21.18 58.06 22.01 59.47 24.05C60.41 25.41 62.89 29.69 63.02 29.9C63.11 30.07 63.2 30.25 63.29 30.42C64.01 31.79 65.09 33.86 64.74 34.44ZM20.12 49.49C22.09 49.49 23.7 51.09 23.7 53.07C23.7 55.04 22.09 56.64 20.12 56.64C18.14 56.64 16.54 55.04 16.54 53.07C16.54 51.09 18.14 49.49 20.12 49.49Z" fill="#18DE6E" fill-opacity="1.000000" fill-rule="nonzero"/>
		<path id="Vector" d="M5.01 38.34L16.28 38.34C17.42 38.34 18.35 37.41 18.35 36.27L18.35 27.98C18.35 26.84 17.42 25.91 16.28 25.91L5.01 25.91C3.86 25.91 2.93 26.84 2.93 27.98L2.93 36.27C2.93 37.41 3.86 38.34 5.01 38.34Z" fill="#18DE6E" fill-opacity="1.000000" fill-rule="nonzero"/>
		<path id="Vector" d="M23.74 38.34L35.01 38.34C36.16 38.34 37.09 37.41 37.09 36.27L37.09 27.98C37.09 26.84 36.16 25.91 35.01 25.91L23.74 25.91C22.6 25.91 21.67 26.84 21.67 27.98L21.67 36.27C21.67 37.41 22.6 38.34 23.74 38.34Z" fill="#18DE6E" fill-opacity="1.000000" fill-rule="nonzero"/>
		<path id="Vector" d="M5.01 22.76L16.28 22.76C17.42 22.76 18.35 21.83 18.35 20.69L18.35 12.4C18.35 11.26 17.42 10.33 16.28 10.33L5.01 10.33C3.86 10.33 2.93 11.26 2.93 12.4L2.93 20.69C2.93 21.83 3.86 22.76 5.01 22.76Z" fill="#18DE6E" fill-opacity="1.000000" fill-rule="nonzero"/>
		<path id="Vector" d="M23.74 22.76L35.01 22.76C36.16 22.76 37.09 21.83 37.09 20.69L37.09 12.4C37.09 11.26 36.16 10.33 35.01 10.33L23.74 10.33C22.6 10.33 21.67 11.26 21.67 12.4L21.67 20.69C21.67 21.83 22.6 22.76 23.74 22.76Z" fill="#18DE6E" fill-opacity="1.000000" fill-rule="nonzero"/>
	</g>
</svg>
