<svg width="67.855957" height="75.999512" viewBox="0 0 67.856 75.9995" fill="none" xmlns="http://www.w3.org/2000/svg" xmlns:xlink="http://www.w3.org/1999/xlink">
	<desc>
			Created with Pixso.
	</desc>
	<defs/>
	<path id="Vector" d="M66.93 10.63C66.79 9.65 66.09 8.85 65.13 8.58L34.59 0.09C34.15 -0.04 33.69 -0.04 33.26 0.09L2.71 8.58C1.76 8.85 1.05 9.65 0.92 10.63C0.74 11.91 -3.3 42.01 7.07 56.98C17.42 71.94 32.69 75.77 33.34 75.93C33.53 75.97 33.73 75.99 33.92 75.99C34.12 75.99 34.31 75.97 34.51 75.93C35.15 75.77 50.43 71.94 60.78 56.98C71.15 42.01 67.11 11.91 66.93 10.63ZM53.62 28.2L32.79 49.04C32.3 49.52 31.67 49.77 31.03 49.77C30.39 49.77 29.76 49.53 29.27 49.04L16.39 36.16C15.93 35.69 15.66 35.06 15.66 34.4C15.66 33.74 15.93 33.11 16.39 32.65L18.95 30.09C19.92 29.12 21.49 29.12 22.46 30.09L31.03 38.66L47.55 22.13C48.02 21.67 48.65 21.41 49.31 21.41C49.97 21.41 50.6 21.67 51.06 22.13L53.62 24.69C54.59 25.66 54.59 27.23 53.62 28.2Z" fill="#18DE6E" fill-opacity="1.000000" fill-rule="nonzero"/>
</svg>
