<svg width="56.426941" height="76.000000" viewBox="0 0 56.4269 76" fill="none" xmlns="http://www.w3.org/2000/svg" xmlns:xlink="http://www.w3.org/1999/xlink">
	<desc>
			Created with Pixso.
	</desc>
	<defs/>
	<path id="Vector" d="M11.85 38.47C12.39 38.91 12.67 39.61 12.53 40.3L11.88 43.7C11.72 44.54 12.19 45.35 12.97 45.64L15.09 46.44L17.21 47.24C17.99 47.53 18.88 47.2 19.32 46.47L21 43.55C21.36 42.95 22.03 42.59 22.73 42.62C23.73 42.67 24.75 42.63 25.74 42.53C26.45 42.45 27.12 42.74 27.52 43.32L29.47 46.19C29.95 46.89 30.88 47.14 31.64 46.8L33.7 45.85L35.76 44.9C36.54 44.54 36.94 43.68 36.72 42.85L35.85 39.61C35.66 38.92 35.9 38.21 36.41 37.74C37.16 37.05 37.86 36.32 38.49 35.54C38.92 34.99 39.62 34.73 40.3 34.85L43.7 35.51C44.54 35.66 45.35 35.2 45.64 34.42L46.44 32.29L47.24 30.17C47.53 29.39 47.2 28.5 46.47 28.07L43.54 26.41C42.92 26.07 42.56 25.39 42.59 24.67C42.63 23.67 42.6 22.67 42.49 21.66C42.42 20.96 42.71 20.29 43.29 19.88L46.16 17.93C46.86 17.45 47.11 16.53 46.77 15.76L45.82 13.7L44.86 11.64C44.51 10.87 43.65 10.46 42.82 10.68L39.58 11.55C38.89 11.74 38.16 11.5 37.69 10.97C36.99 10.18 36.22 9.48 35.41 8.84C34.85 8.4 34.57 7.7 34.71 7L35.35 3.64C35.51 2.8 35.04 1.99 34.26 1.69L32.14 0.9L30.02 0.1C29.24 -0.19 28.35 0.13 27.91 0.87L26.2 3.83C25.84 4.44 25.18 4.78 24.48 4.75C23.47 4.7 22.45 4.74 21.44 4.86C20.74 4.94 20.05 4.64 19.66 4.05L17.74 1.23C17.28 0.54 16.37 0.28 15.61 0.59L13.55 1.54L11.54 2.51C10.76 2.86 10.35 3.72 10.58 4.55L11.47 7.84C11.66 8.51 11.44 9.24 10.91 9.71C10.16 10.4 9.46 11.15 8.84 11.94C8.4 12.49 7.7 12.77 7.01 12.63L3.64 11.99C2.8 11.83 1.99 12.3 1.69 13.08L0.9 15.2L0.1 17.32C-0.19 18.1 0.13 18.99 0.87 19.43L3.83 21.14C4.44 21.5 4.78 22.16 4.75 22.86C4.7 23.87 4.74 24.89 4.86 25.9C4.94 26.6 4.64 27.29 4.05 27.68L1.24 29.57C0.54 30.05 0.29 30.97 0.63 31.73L1.59 33.79L2.54 35.85C2.9 36.63 3.75 37.04 4.58 36.82L7.87 35.93C8.56 35.74 9.27 35.98 9.74 36.49C10.4 37.21 11.1 37.88 11.85 38.47ZM19.38 14.65C24.37 12.28 30.34 14.41 32.72 19.4C35.09 24.39 32.97 30.36 27.97 32.73C22.98 35.1 17.01 32.98 14.64 27.99C12.27 23 14.39 17.03 19.38 14.65Z" fill="#18DE6E" fill-opacity="1.000000" fill-rule="nonzero"/>
	<path id="Vector" d="M55.94 49.62L54.63 49.2C54.35 49.11 54.16 48.87 54.11 48.59C54.05 48.19 53.94 47.78 53.82 47.39C53.72 47.13 53.79 46.81 53.99 46.61L54.97 45.58C55.21 45.33 55.24 44.94 55.03 44.66L54.47 43.91L53.91 43.16C53.71 42.88 53.33 42.81 53.02 42.96L51.81 43.6C51.54 43.74 51.23 43.71 50.99 43.54C50.67 43.31 50.31 43.09 49.93 42.9C49.68 42.78 49.51 42.51 49.5 42.23L49.47 40.81C49.45 40.47 49.2 40.17 48.86 40.12L47.94 39.98L47.02 39.84C46.67 39.8 46.35 40 46.24 40.33L45.82 41.64C45.72 41.92 45.49 42.12 45.19 42.17C44.77 42.23 44.35 42.34 43.94 42.48C43.66 42.57 43.37 42.51 43.15 42.31L42.14 41.34C41.89 41.11 41.5 41.08 41.22 41.28L40.47 41.84L39.72 42.4C39.44 42.6 39.36 42.98 39.52 43.29L40.15 44.54C40.28 44.79 40.26 45.1 40.09 45.33C39.86 45.68 39.64 46.03 39.45 46.41C39.33 46.67 39.06 46.83 38.78 46.85L37.38 46.88C37.04 46.89 36.74 47.14 36.68 47.47L36.54 48.39L36.4 49.31C36.35 49.65 36.55 49.98 36.88 50.09L38.22 50.51C38.5 50.6 38.69 50.84 38.74 51.12C38.8 51.54 38.91 51.93 39.05 52.34C39.14 52.6 39.08 52.91 38.88 53.12L37.91 54.13C37.68 54.38 37.64 54.77 37.85 55.05L38.41 55.8L38.97 56.55C39.17 56.83 39.55 56.91 39.86 56.75L41.11 56.11C41.36 55.99 41.67 56 41.9 56.17C42.24 56.41 42.6 56.62 42.98 56.81C43.24 56.94 43.4 57.2 43.41 57.48L43.45 58.89C43.46 59.23 43.71 59.53 44.05 59.57L44.97 59.71L45.89 59.85C46.24 59.9 46.56 59.7 46.67 59.37L47.1 58.04C47.19 57.76 47.42 57.58 47.7 57.51C48.09 57.45 48.48 57.34 48.86 57.22C49.14 57.12 49.43 57.19 49.64 57.39L50.67 58.37C50.92 58.61 51.31 58.64 51.59 58.43L52.34 57.87L53.08 57.31C53.36 57.11 53.44 56.73 53.29 56.42L52.65 55.19C52.51 54.92 52.54 54.63 52.71 54.38C52.94 54.05 53.16 53.69 53.35 53.32C53.47 53.07 53.74 52.9 54.02 52.88L55.44 52.85C55.78 52.83 56.08 52.59 56.13 52.24L56.27 51.32L56.41 50.4C56.48 50.06 56.27 49.73 55.94 49.62ZM50.5 50.39C50.2 52.63 48.14 54.22 45.89 53.93C43.65 53.63 42.06 51.57 42.35 49.33C42.65 47.08 44.71 45.49 46.95 45.79C49.2 46.08 50.79 48.14 50.5 50.39Z" fill="#18DE6E" fill-opacity="1.000000" fill-rule="nonzero"/>
	<path id="Vector" d="M38.05 59.24L36.07 58.9C35.65 58.82 35.32 58.53 35.2 58.12C35.02 57.54 34.79 56.98 34.52 56.45C34.34 56.08 34.37 55.64 34.62 55.3L35.82 53.63C36.12 53.22 36.07 52.66 35.71 52.3L34.76 51.35L33.81 50.4C33.45 50.04 32.89 50 32.48 50.28L30.84 51.45C30.5 51.7 30.05 51.71 29.66 51.52C29.13 51.24 28.58 51.01 28.01 50.82C27.62 50.68 27.32 50.35 27.24 49.95L26.9 47.91C26.82 47.41 26.38 47.03 25.88 47.03L24.53 47.03L23.17 47.03C22.66 47.03 22.23 47.39 22.14 47.89L21.8 49.86C21.72 50.28 21.42 50.6 21 50.73C20.39 50.92 19.82 51.15 19.27 51.43C18.9 51.62 18.44 51.6 18.1 51.35L16.45 50.17C16.04 49.87 15.48 49.92 15.12 50.28L14.17 51.23L13.22 52.18C12.86 52.54 12.81 53.1 13.1 53.51L14.27 55.17C14.5 55.52 14.53 55.97 14.34 56.33C14.06 56.86 13.83 57.42 13.64 58C13.52 58.4 13.17 58.68 12.77 58.76L10.76 59.09C10.27 59.17 9.9 59.6 9.87 60.09L9.87 61.44L9.87 62.8C9.87 63.32 10.23 63.74 10.72 63.83L12.74 64.17C13.14 64.25 13.49 64.55 13.61 64.94C13.8 65.51 14.02 66.08 14.3 66.62C14.48 67 14.45 67.45 14.22 67.78L13.03 69.43C12.74 69.83 12.78 70.4 13.14 70.75L14.09 71.71L15.04 72.66C15.4 73.02 15.97 73.06 16.37 72.78L18.04 71.61C18.38 71.38 18.83 71.35 19.19 71.53C19.72 71.82 20.29 72.05 20.86 72.24C21.27 72.36 21.55 72.7 21.63 73.11L21.95 75.12C22.03 75.62 22.47 76 22.97 76L24.32 76L25.68 76C26.2 76 26.62 75.64 26.71 75.14L27.05 73.14C27.13 72.72 27.43 72.39 27.83 72.27C28.38 72.1 28.91 71.88 29.42 71.61C29.8 71.43 30.25 71.46 30.58 71.69L32.25 72.89C32.65 73.19 33.21 73.14 33.57 72.78L34.52 71.83L35.48 70.88C35.83 70.52 35.88 69.96 35.6 69.55L34.45 67.92C34.2 67.57 34.18 67.12 34.38 66.75C34.66 66.22 34.9 65.67 35.09 65.09C35.23 64.7 35.55 64.41 35.96 64.33L38 63.99C38.5 63.91 38.88 63.47 38.88 62.97L38.88 61.62L38.88 60.26C38.92 59.76 38.55 59.32 38.05 59.24ZM24.47 67.45C21.17 67.48 18.48 64.83 18.44 61.54C18.41 58.25 21.07 55.55 24.36 55.52C27.65 55.49 30.34 58.14 30.38 61.43C30.41 64.72 27.76 67.42 24.47 67.45Z" fill="#18DE6E" fill-opacity="1.000000" fill-rule="nonzero"/>
</svg>
