<svg width="75.998917" height="76.000000" viewBox="0 0 75.9989 76" fill="none" xmlns="http://www.w3.org/2000/svg" xmlns:xlink="http://www.w3.org/1999/xlink">
	<desc>
			Created with Pixso.
	</desc>
	<defs/>
	<path id="Vector" d="M75.76 33.78C75.64 32.71 74.39 31.9 73.31 31.9C69.83 31.9 66.74 29.86 65.44 26.7C64.12 23.46 64.97 19.68 67.57 17.3C68.39 16.55 68.49 15.3 67.8 14.44C66.02 12.17 63.99 10.13 61.78 8.36C60.92 7.66 59.64 7.76 58.89 8.59C56.63 11.1 52.56 12.03 49.41 10.72C46.14 9.34 44.08 6.03 44.28 2.47C44.35 1.35 43.53 0.38 42.42 0.25C39.58 -0.08 36.71 -0.09 33.87 0.23C32.77 0.35 31.95 1.3 31.99 2.4C32.11 5.92 30.02 9.18 26.78 10.51C23.68 11.78 19.64 10.85 17.38 8.37C16.63 7.55 15.38 7.45 14.51 8.12C12.23 9.91 10.16 11.96 8.36 14.2C7.66 15.08 7.76 16.34 8.59 17.09C11.23 19.49 12.09 23.29 10.71 26.57C9.4 29.7 6.16 31.71 2.44 31.71C1.24 31.67 0.38 32.48 0.25 33.57C-0.09 36.43 -0.09 39.34 0.23 42.22C0.35 43.29 1.64 44.08 2.72 44.08C6.03 44 9.21 46.05 10.54 49.29C11.87 52.53 11.02 56.31 8.42 58.69C7.61 59.44 7.5 60.68 8.19 61.55C9.95 63.8 11.98 65.85 14.2 67.63C15.07 68.33 16.34 68.24 17.09 67.4C19.37 64.89 23.43 63.96 26.56 65.27C29.84 66.65 31.91 69.96 31.71 73.52C31.64 74.64 32.46 75.61 33.57 75.74C35.02 75.91 36.48 76 37.95 76C39.34 76 40.73 75.92 42.12 75.76C43.22 75.64 44.04 74.69 44 73.59C43.87 70.07 45.97 66.81 49.2 65.48C52.33 64.21 56.35 65.14 58.61 67.62C59.36 68.44 60.6 68.54 61.48 67.86C63.75 66.08 65.82 64.04 67.63 61.79C68.33 60.92 68.23 59.65 67.4 58.9C64.76 56.5 63.9 52.69 65.27 49.42C66.56 46.34 69.69 44.27 73.04 44.27L73.51 44.28C74.6 44.37 75.61 43.53 75.74 42.42C76.07 39.56 76.08 36.65 75.76 33.78ZM37.99 59.9C25.89 59.9 16.09 50.09 16.09 38C16.09 25.9 25.9 16.09 37.99 16.09C50.09 16.09 59.9 25.9 59.9 38C59.9 42.1 58.77 45.94 56.8 49.23L47.21 39.64C47.9 38 48.27 36.22 48.27 34.39C48.27 30.8 46.87 27.43 44.34 24.89C41.8 22.36 38.43 20.96 34.84 20.96C33.64 20.96 32.45 21.12 31.3 21.43C30.8 21.57 30.38 21.99 30.25 22.49C30.11 23.01 30.27 23.54 30.67 23.95C30.67 23.95 35.41 28.72 36.99 30.3C37.16 30.47 37.16 30.86 37.13 31.01L37.12 31.11C36.96 32.85 36.65 34.94 36.4 35.75C36.36 35.78 36.33 35.81 36.29 35.84C36.26 35.88 36.22 35.92 36.19 35.95C35.38 36.21 33.25 36.53 31.48 36.68L31.48 36.67L31.4 36.69C31.39 36.7 31.36 36.7 31.33 36.7C31.14 36.7 30.86 36.64 30.6 36.39C28.95 34.74 24.4 30.22 24.4 30.22C23.99 29.82 23.57 29.73 23.29 29.73C22.64 29.73 22.06 30.2 21.88 30.87C20.63 35.51 21.95 40.5 25.34 43.89C27.88 46.42 31.25 47.82 34.84 47.82C36.67 47.82 38.45 47.45 40.09 46.76L49.78 56.46C46.38 58.63 42.34 59.9 37.99 59.9Z" fill="#18DE6E" fill-opacity="1.000000" fill-rule="nonzero"/>
</svg>
