<svg width="60.000000" height="42.439941" viewBox="0 0 60 42.4399" fill="none" xmlns="http://www.w3.org/2000/svg" xmlns:xlink="http://www.w3.org/1999/xlink">
	<desc>
			Created with Pixso.
	</desc>
	<defs/>
	<path id="Vector" d="M16.83 25.6L11.63 25.6C11 25.6 10.51 26.1 10.51 26.72L10.51 28.88L10.51 38.39L10.51 40.55C10.51 41.17 11 41.67 11.63 41.67L16.83 41.67C17.45 41.67 17.94 41.17 17.94 40.55L17.94 38.39L17.94 28.88L17.94 26.72C17.96 26.1 17.45 25.6 16.83 25.6Z" fill="#18DE6E" fill-opacity="1.000000" fill-rule="nonzero"/>
	<path id="Vector" d="M27.34 19.39L22.14 19.39C21.52 19.39 21.02 19.88 21.02 20.5L21.02 28.88L21.02 32.16L21.02 40.54C21.02 41.16 21.52 41.65 22.14 41.65L27.34 41.65C27.96 41.65 28.46 41.16 28.46 40.54L28.46 32.16L28.46 28.88L28.46 20.5C28.46 19.88 27.96 19.39 27.34 19.39Z" fill="#18DE6E" fill-opacity="1.000000" fill-rule="nonzero"/>
	<path id="Vector" d="M38.97 22.7L38.97 13.44L42.57 13.44C43.23 13.44 43.64 12.71 43.29 12.15L35.97 0.4C35.63 -0.14 34.86 -0.14 34.53 0.4L27.2 12.15C26.85 12.71 27.25 13.44 27.92 13.44L31.52 13.44L31.52 40.55C31.52 41.17 32.02 41.67 32.64 41.67L37.84 41.67C38.46 41.67 38.96 41.17 38.96 40.55C36.87 38.15 35.59 35.04 35.59 31.61C35.62 28.21 36.88 25.08 38.97 22.7Z" fill="#18DE6E" fill-opacity="1.000000" fill-rule="nonzero"/>
	<path id="Vector" d="M49.2 20.84C43.24 20.84 38.4 25.67 38.4 31.64C38.4 37.59 43.23 42.43 49.2 42.43C55.15 42.43 59.99 37.61 59.99 31.64C59.99 25.67 55.17 20.84 49.2 20.84ZM52.3 35.88C51.83 36.45 51.22 36.84 50.5 37.04C50.19 37.12 50.05 37.28 50.07 37.61C50.08 37.93 50.07 38.24 50.07 38.56C50.07 38.85 49.92 39 49.64 39.01C49.3 39.02 48.96 39.02 48.61 39.01C48.32 39.01 48.17 38.84 48.17 38.54C48.17 38.3 48.17 38.07 48.15 37.84C48.15 37.33 48.13 37.31 47.63 37.23C47 37.14 46.38 36.99 45.8 36.71C45.34 36.49 45.3 36.38 45.42 35.91C45.52 35.55 45.62 35.2 45.73 34.85C45.86 34.44 45.97 34.39 46.34 34.59C46.99 34.93 47.66 35.11 48.38 35.2C48.84 35.26 49.28 35.21 49.71 35.03C50.5 34.68 50.62 33.76 49.95 33.2C49.73 33.01 49.47 32.88 49.2 32.75C48.5 32.44 47.77 32.22 47.12 31.82C46.06 31.19 45.39 30.31 45.46 29.01C45.55 27.54 46.38 26.62 47.72 26.14C48.28 25.94 48.28 25.94 48.28 25.37C48.28 25.17 48.28 24.97 48.28 24.79C48.29 24.35 48.36 24.28 48.8 24.26C48.94 24.26 49.07 24.26 49.21 24.26C50.14 24.26 50.14 24.26 50.14 25.19C50.14 25.85 50.14 25.85 50.8 25.95C51.29 26.03 51.78 26.18 52.24 26.39C52.5 26.5 52.59 26.67 52.51 26.94C52.4 27.34 52.29 27.75 52.16 28.15C52.04 28.52 51.93 28.58 51.57 28.41C50.85 28.06 50.09 27.91 49.28 27.96C49.07 27.98 48.87 28 48.68 28.09C47.98 28.38 47.87 29.15 48.46 29.63C48.76 29.86 49.1 30.04 49.46 30.18C50.07 30.43 50.69 30.68 51.27 31C53.11 31.97 53.6 34.31 52.3 35.88Z" fill="#18DE6E" fill-opacity="1.000000" fill-rule="nonzero"/>
	<path id="Vector" d="M6.31 33.11L1.11 33.11C0.49 33.11 0 33.61 0 34.23L0 34.44L0 36.39L0 38.39L0 39.13L0 40.55C0 41.17 0.49 41.67 1.11 41.67L6.31 41.67C6.93 41.67 7.43 41.17 7.43 40.55L7.43 39.13L7.43 38.39L7.43 36.39L7.43 34.71L7.43 34.23C7.44 33.61 6.93 33.11 6.31 33.11Z" fill="#18DE6E" fill-opacity="1.000000" fill-rule="nonzero"/>
</svg>
