<svg width="29.000000" height="32.000000" viewBox="0 0 29 32" fill="none" xmlns="http://www.w3.org/2000/svg" xmlns:xlink="http://www.w3.org/1999/xlink">
	<desc>
			Created with Pixso.
	</desc>
	<defs/>
	<path id="Vector" d="M22.48 0.75C17.18 -0.26 11.81 -0.26 6.51 0.75C4.19 1.27 1.28 4.07 0.71 6.33C-0.24 10.69 -0.24 15.1 0.71 19.46C1.28 21.72 4.19 24.52 6.51 25.04C6.51 25.04 6.51 25.04 6.51 25.04C6.61 25.06 6.69 25.15 6.69 25.25L6.69 31.64C6.69 31.96 7.08 32.12 7.3 31.88L10.33 28.77C10.33 28.77 12.74 26.29 13.17 25.84C13.21 25.8 13.27 25.78 13.33 25.78C16.39 25.86 19.45 25.62 22.48 25.04C24.8 24.52 27.71 21.72 28.28 19.46C29.23 15.1 29.23 10.69 28.28 6.33C27.71 4.07 24.8 1.27 22.48 0.75ZM22.56 19.79C22.1 20.78 21.42 21.6 20.45 22.12C20.17 22.27 19.85 22.32 19.54 22.41C19.18 22.3 18.84 22.23 18.53 22.1C15.26 20.74 12.25 18.99 9.87 16.3C8.51 14.77 7.45 13.05 6.56 11.22C6.13 10.35 5.77 9.45 5.41 8.56C5.08 7.74 5.57 6.9 6.08 6.29C6.57 5.71 7.19 5.27 7.87 4.94C8.39 4.69 8.91 4.84 9.3 5.28C10.13 6.25 10.89 7.27 11.51 8.39C11.89 9.08 11.79 9.93 11.1 10.4C10.93 10.51 10.78 10.64 10.62 10.77C10.49 10.89 10.36 11 10.26 11.15C10.09 11.43 10.08 11.76 10.19 12.07C11.04 14.41 12.48 16.23 14.83 17.21C15.21 17.37 15.58 17.55 16.02 17.5C16.74 17.42 16.98 16.62 17.49 16.2C17.99 15.8 18.62 15.79 19.16 16.13C19.69 16.47 20.21 16.83 20.73 17.2C21.24 17.57 21.74 17.92 22.21 18.33C22.66 18.73 22.81 19.25 22.56 19.79ZM18.34 12.15C18.14 12.16 18.22 12.15 18.3 12.15C17.97 12.14 17.79 11.95 17.76 11.63C17.73 11.4 17.71 11.17 17.65 10.95C17.55 10.51 17.31 10.1 16.95 9.83C16.77 9.71 16.58 9.61 16.37 9.55C16.11 9.48 15.83 9.5 15.57 9.43C15.29 9.36 15.13 9.13 15.18 8.87C15.22 8.62 15.45 8.43 15.72 8.45C17.37 8.57 18.56 9.43 18.73 11.39C18.74 11.53 18.75 11.67 18.72 11.8C18.67 12.02 18.52 12.13 18.37 12.15C18.38 12.15 18.38 12.15 18.34 12.15ZM17.31 7.68C16.8 7.43 16.25 7.27 15.69 7.18C15.45 7.14 15.21 7.12 14.96 7.08C14.66 7.04 14.51 6.85 14.52 6.56C14.53 6.28 14.73 6.09 15.03 6.1C16.01 6.16 16.96 6.37 17.83 6.84C19.6 7.78 20.62 9.26 20.91 11.25C20.93 11.34 20.95 11.43 20.96 11.52C20.97 11.74 20.98 11.96 21 12.26C20.99 12.31 20.99 12.44 20.96 12.55C20.84 12.99 20.19 13.04 20.04 12.6C20 12.48 19.99 12.33 19.99 12.19C19.99 11.28 19.79 10.38 19.34 9.59C18.87 8.77 18.15 8.09 17.31 7.68ZM22.79 13.81C22.45 13.82 22.29 13.53 22.27 13.22C22.23 12.61 22.2 12 22.11 11.39C21.67 8.2 19.13 5.56 15.96 4.99C15.49 4.91 15 4.89 14.51 4.84C14.21 4.8 13.81 4.79 13.74 4.4C13.68 4.09 13.95 3.83 14.26 3.82C14.34 3.81 14.42 3.81 14.5 3.81C18.61 3.93 14.75 3.82 14.52 3.82C18.78 3.94 22.29 6.78 23.04 11.02C23.17 11.74 23.22 12.48 23.27 13.21C23.3 13.52 23.12 13.81 22.79 13.81Z" fill="#FFFFFF" fill-opacity="1.000000" fill-rule="nonzero"/>
</svg>
