<svg width="28.000000" height="28.000000" viewBox="0 0 28 28" fill="none" xmlns="http://www.w3.org/2000/svg" xmlns:xlink="http://www.w3.org/1999/xlink">
	<desc>
			Created with Pixso.
	</desc>
	<defs>
		<clipPath id="clip34_0">
			<rect id="distance 1" width="28.000000" height="28.000000" fill="white" fill-opacity="0"/>
		</clipPath>
	</defs>
	<rect id="distance 1" width="28.000000" height="28.000000" fill="#FFFFFF" fill-opacity="0"/>
	<g clip-path="url(#clip34_0)">
		<path id="Vector" d="M23.18 12.25C20.52 12.25 18.37 14.42 18.37 17.09C18.37 18.55 19.1 20.21 20.53 22.03C21.55 23.33 22.56 24.24 22.61 24.27C22.94 24.57 23.44 24.57 23.77 24.27C23.81 24.24 24.82 23.33 25.84 22.03C26.94 20.63 27.99 18.85 27.99 17.08C27.99 14.42 25.85 12.25 23.18 12.25ZM21.87 17.06C21.87 16.33 22.45 15.75 23.18 15.75C24.35 15.75 24.93 17.16 24.11 17.98C23.29 18.8 21.87 18.23 21.87 17.06Z" fill="#0F0F10" fill-opacity="1.000000" fill-rule="nonzero"/>
		<path id="Vector" d="M4.23 12.02C4.56 12.32 5.06 12.32 5.39 12.02C5.43 11.99 6.45 11.08 7.47 9.78C8.9 7.96 9.62 6.3 9.62 4.84C9.62 2.17 7.46 0 4.81 0C2.16 0 0 2.17 0 4.84C0 6.3 0.72 7.96 2.15 9.78C3.17 11.08 4.19 11.99 4.23 12.02ZM4.81 3.5C5.53 3.5 6.12 4.08 6.12 4.81C6.12 5.53 5.53 6.12 4.81 6.12C4.09 6.12 3.5 5.53 3.5 4.81C3.5 4.08 4.09 3.5 4.81 3.5Z" fill="#0F0F10" fill-opacity="1.000000" fill-rule="nonzero"/>
		<path id="Vector" d="M24.5 26.68C24.5 27.88 23.02 28.45 22.21 27.56L3.93 27.56C1.76 27.56 0 25.79 0 23.62C0 21.45 1.76 19.68 3.93 19.68L12.71 19.68C13.9 19.68 14.87 18.71 14.87 17.52C14.87 16.33 13.9 15.36 12.71 15.36L5.79 15.36C5.52 15.65 5.17 15.8 4.81 15.8C3.65 15.8 3.06 14.38 3.88 13.56C4.42 13.02 5.3 13.06 5.79 13.61L12.71 13.61C14.87 13.61 16.62 15.37 16.62 17.52C16.62 19.68 14.87 21.43 12.71 21.43L3.93 21.43C2.73 21.43 1.75 22.41 1.75 23.62C1.75 24.83 2.73 25.81 3.93 25.81C23.62 25.81 22.18 25.83 22.26 25.76C23.08 24.93 24.5 25.51 24.5 26.68Z" fill="#0F0F10" fill-opacity="1.000000" fill-rule="nonzero"/>
	</g>
</svg>
