<svg width="28.000000" height="25.154419" viewBox="0 0 28 25.1544" fill="none" xmlns="http://www.w3.org/2000/svg" xmlns:xlink="http://www.w3.org/1999/xlink">
	<desc>
			Created with Pixso.
	</desc>
	<defs/>
	<path id="Vector" d="M25.84 2.42L23.96 2.42L23.96 4.09C23.96 5.28 23 6.24 21.8 6.24C20.61 6.24 19.65 5.28 19.65 4.09L19.65 2.42L16.15 2.42L16.15 4.09C16.15 5.28 15.19 6.24 14 6.24C12.8 6.24 11.84 5.28 11.84 4.09L11.84 2.42L8.34 2.42L8.34 4.09C8.34 5.28 7.38 6.24 6.19 6.24C4.99 6.24 4.03 5.28 4.03 4.09L4.03 2.42L2.15 2.42C1.58 2.42 1.03 2.65 0.63 3.05C0.22 3.46 0 4 0 4.58L0 22.99C0 24.18 0.96 25.15 2.15 25.15L25.84 25.15C27.03 25.15 28 24.18 28 22.99L28 4.58C28 3.39 27.03 2.42 25.84 2.42ZM23.68 9.23L23.68 12.36L19.62 12.36L19.62 9.23L23.68 9.23ZM9.34 13.32L13.51 13.32L13.51 16.29L9.34 16.29L9.34 13.32ZM8.37 16.29L4.31 16.29L4.31 13.32L8.38 13.32L8.37 16.29ZM13.51 17.25L13.51 20.84L9.34 20.84L9.34 17.25L13.51 17.25ZM14.48 17.25L18.65 17.25L18.65 20.84L14.48 20.84L14.48 17.25ZM14.48 16.29L14.48 13.32L18.65 13.32L18.65 16.29L14.48 16.29ZM19.62 13.32L23.68 13.32L23.68 16.29L19.62 16.29L19.62 13.32ZM18.65 9.23L18.65 12.36L14.48 12.36L14.48 9.23L18.65 9.23ZM13.51 9.23L13.51 12.36L9.34 12.36L9.34 9.23L13.51 9.23ZM8.37 9.23L8.37 12.36L4.31 12.36L4.31 9.23L8.37 9.23ZM4.31 17.25L8.38 17.25L8.38 20.84L4.31 20.84L4.31 17.25ZM19.62 20.84L19.62 17.25L23.68 17.25L23.68 20.84L19.62 20.84ZM4.95 4.09L4.95 1.23C4.95 0.55 5.51 0 6.19 0C6.87 0 7.42 0.55 7.42 1.23L7.42 4.09C7.42 4.77 6.87 5.32 6.19 5.32C5.51 5.32 4.95 4.77 4.95 4.09ZM12.76 4.09L12.76 1.23C12.76 0.55 13.32 0 14 0C14.68 0 15.23 0.55 15.23 1.23L15.23 4.09C15.23 4.77 14.68 5.32 14 5.32C13.32 5.32 12.76 4.77 12.76 4.09ZM20.57 4.09L20.57 1.23C20.57 0.55 21.13 0 21.81 0C22.49 0 23.04 0.55 23.04 1.23L23.04 4.09C23.04 4.77 22.49 5.32 21.81 5.32C21.12 5.32 20.57 4.77 20.57 4.09Z" fill="#0F0F10" fill-opacity="1.000000" fill-rule="nonzero"/>
</svg>
