<svg width="27.983414" height="28.000732" viewBox="0 0 27.9834 28.0007" fill="none" xmlns="http://www.w3.org/2000/svg" xmlns:xlink="http://www.w3.org/1999/xlink">
	<desc>
			Created with Pixso.
	</desc>
	<defs/>
	<path id="Vector" d="M27.26 4.19C28.22 3.24 28.22 1.67 27.26 0.71C26.3 -0.24 24.74 -0.24 23.78 0.71L18.33 6.17L11.37 6.17L0 17.54L8.12 25.66L19.5 14.29L19.5 7.33L20.94 5.88C22.54 6.94 24.71 6.75 26.1 5.35L27.26 4.19ZM13.45 15.69L12.29 14.53C12.61 14.21 12.61 13.69 12.29 13.37C11.97 13.05 11.45 13.05 11.13 13.37C10.81 13.69 10.81 14.21 11.13 14.53C12.09 15.49 12.09 17.05 11.13 18.01C10.46 18.67 9.41 18.97 8.34 18.47L7.07 19.75L5.91 18.59L7.18 17.31C6.75 16.4 6.89 15.28 7.64 14.53L8.81 15.69C8.49 16.01 8.49 16.53 8.81 16.85C9.13 17.17 9.65 17.17 9.97 16.85C10.29 16.53 10.29 16.01 9.97 15.69C9.01 14.73 9.01 13.17 9.97 12.21C10.72 11.45 11.84 11.31 12.75 11.74L14.03 10.47L15.19 11.63L13.91 12.9C14.34 13.82 14.2 14.93 13.45 15.69ZM22.14 4.68L24.94 1.87C25.26 1.55 25.78 1.55 26.1 1.87C26.42 2.19 26.42 2.72 26.1 3.03L24.94 4.19C24.18 4.95 23.05 5.11 22.14 4.68Z" fill="#0F0F10" fill-opacity="1.000000" fill-rule="nonzero"/>
	<path id="Vector" d="M21.14 8.79L21.14 14.97L10.66 25.44L10.52 26.57L21.92 28L23.82 12.22L21.14 8.79Z" fill="#0F0F10" fill-opacity="1.000000" fill-rule="nonzero"/>
</svg>
