<svg width="28.000000" height="28.000000" viewBox="0 0 28 28" fill="none" xmlns="http://www.w3.org/2000/svg" xmlns:xlink="http://www.w3.org/1999/xlink">
	<desc>
			Created with Pixso.
	</desc>
	<defs>
		<clipPath id="clip34_5">
			<rect id="speedometer 1" width="28.000000" height="28.000000" fill="white" fill-opacity="0"/>
		</clipPath>
	</defs>
	<rect id="speedometer 1" width="28.000000" height="28.000000" fill="#FFFFFF" fill-opacity="0"/>
	<g clip-path="url(#clip34_5)">
		<path id="Vector" d="M15.12 18.43C15.12 19.01 14.64 19.49 14.06 19.49C13.48 19.49 13.01 19.01 13.01 18.43C13.01 17.85 13.48 17.38 14.06 17.38C14.64 17.38 15.12 17.85 15.12 18.43Z" fill="#0F0F10" fill-opacity="1.000000" fill-rule="evenodd"/>
		<path id="Vector" d="M23.18 22.39L24 20.97L26.5 22.41C27.36 20.72 27.86 18.87 27.99 16.96L25.07 16.96L25.07 15.32L28 15.32C27.89 13.39 27.4 11.53 26.56 9.83L24 11.31L23.18 9.89L25.74 8.41C25.22 7.6 24.6 6.85 23.91 6.15C23.24 5.48 22.51 4.88 21.74 4.37L20.25 6.96L18.82 6.13L20.32 3.54C18.62 2.68 16.76 2.18 14.82 2.07L14.82 5.06L13.17 5.06L13.17 2.07C11.23 2.18 9.37 2.68 7.67 3.54L9.17 6.13L7.74 6.96L6.25 4.37C5.48 4.88 4.75 5.48 4.08 6.15C3.39 6.85 2.77 7.6 2.25 8.41L4.81 9.89L3.99 11.31L1.43 9.83C0.59 11.53 0.1 13.39 0 15.32L2.92 15.32L2.92 16.96L0 16.96C0.13 18.87 0.63 20.72 1.49 22.41L3.99 20.97L4.81 22.39L2.32 23.83C2.75 24.47 3.24 25.09 3.78 25.66L4.02 25.92L23.97 25.92L24.21 25.66C24.75 25.09 25.24 24.47 25.67 23.83L23.18 22.39ZM14.06 21.13C12.57 21.13 11.36 19.92 11.36 18.43C11.36 17.23 12.15 16.21 13.24 15.86L13.24 10.72L14.88 10.72L14.88 15.86C15.97 16.21 16.76 17.23 16.76 18.43C16.76 19.92 15.55 21.13 14.06 21.13ZM21.07 16.06C21.07 12.2 17.93 9.05 14.06 9.05C10.2 9.05 7.05 12.2 7.05 16.06L5.41 16.06C5.41 11.29 9.29 7.41 14.06 7.41C18.83 7.41 22.71 11.29 22.71 16.06L21.07 16.06Z" fill="#0F0F10" fill-opacity="1.000000" fill-rule="nonzero"/>
	</g>
</svg>
