<svg width="21.000000" height="28.000000" viewBox="0 0 21 28" fill="none" xmlns="http://www.w3.org/2000/svg" xmlns:xlink="http://www.w3.org/1999/xlink">
	<desc>
			Created with Pixso.
	</desc>
	<defs/>
	<path id="Vector" d="M18.08 8.16L19.25 8.16C20.21 8.16 21 7.38 21 6.41L21 1.75C21 0.78 20.21 0 19.25 0L18.08 0C17.11 0 16.33 0.78 16.33 1.75L16.33 2.96L12.08 3.35C11.8 2.75 11.2 2.33 10.5 2.33C9.79 2.33 9.19 2.75 8.91 3.35L4.66 2.96L4.66 1.75C4.66 0.78 3.88 0 2.91 0L1.75 0C0.78 0 0 0.78 0 1.75L0 6.41C0 7.38 0.78 8.16 1.75 8.16L2.91 8.16C3.88 8.16 4.66 7.38 4.66 6.41L4.66 5.19L8.91 4.81C9.01 5.03 9.16 5.22 9.34 5.38L9.76 11.69C9.51 11.76 9.33 11.98 9.33 12.25L9.33 15.75C9.33 16 9.5 16.22 9.73 16.29L9.34 21.44C8.98 21.76 8.75 22.23 8.75 22.75L8.75 23.17L4.66 22.8L4.66 21.58C4.66 20.61 3.88 19.83 2.91 19.83L1.75 19.83C0.78 19.83 0 20.61 0 21.58L0 26.25C0 27.21 0.78 28 1.75 28L2.91 28C3.88 28 4.66 27.21 4.66 26.25L4.66 25.03L8.75 24.66L8.75 25.08C8.75 26.04 9.53 26.83 10.5 26.83C11.46 26.83 12.25 26.04 12.25 25.08L12.25 24.66L16.33 25.03L16.33 26.25C16.33 27.21 17.11 28 18.08 28L19.25 28C20.21 28 21 27.21 21 26.25L21 21.58C21 20.61 20.21 19.83 19.25 19.83L18.08 19.83C17.11 19.83 16.33 20.61 16.33 21.58L16.33 22.8L12.25 23.17L12.25 22.75C12.25 22.23 12.01 21.76 11.65 21.44L11.25 16.29C11.49 16.22 11.66 16.01 11.66 15.75L11.66 12.25C11.66 11.98 11.48 11.76 11.23 11.69L11.65 5.38C11.83 5.22 11.98 5.03 12.08 4.81L16.33 5.19L16.33 6.41C16.33 7.38 17.11 8.16 18.08 8.16Z" fill="#0F0F10" fill-opacity="1.000000" fill-rule="nonzero"/>
</svg>
