<svg width="76" height="76" viewBox="0 0 76 76" fill="none" xmlns="http://www.w3.org/2000/svg">
<g id="eco 1">
<path id="Vector" d="M23.757 23.4282L41.6449 41.3161C42.0507 36.9117 42.8793 20.794 34.3969 12.3116C31.5163 9.431 27.7068 7.58191 23.757 6.40601V23.4282Z" fill="#18DE6E"/>
<path id="Vector_2" d="M1.75635 7.72449C1.54703 10.8834 1.24609 20.2959 4.22064 28.5057H22.5376L1.75635 7.72449Z" fill="#18DE6E"/>
<path id="Vector_3" d="M19.3039 18.9756V5.35064C13.0875 4.21417 7.25955 4.42001 4.90485 4.57598L19.3039 18.9756Z" fill="#18DE6E"/>
<path id="Vector_4" d="M26.9901 32.9589H6.26978C7.16678 34.5122 8.22961 35.9543 9.49191 37.2166C15.8353 43.56 26.4474 44.6964 33.239 44.6964C35.5299 44.6964 37.3848 44.5666 38.4964 44.4645L26.9901 32.9589Z" fill="#18DE6E"/>
<path id="Vector_5" d="M73.6308 17.671C74.7673 11.4546 74.5608 5.62668 74.4054 3.27197L60.0058 17.671H73.6308Z" fill="#18DE6E"/>
<path id="Vector_6" d="M50.4757 20.9047L71.2569 0.123472C68.098 -0.0858482 58.6856 -0.386782 50.4757 2.58777V20.9047Z" fill="#18DE6E"/>
<path id="Vector_7" d="M55.5533 22.1241L46.1658 31.5117C46.418 34.986 46.3334 38.0545 46.2 40.1529C52.7939 39.7865 61.2751 38.1583 66.6693 32.7641C69.5499 29.8835 71.3996 26.074 72.5755 22.1241H55.5533Z" fill="#18DE6E"/>
<path id="Vector_8" d="M45.4712 25.9093L46.0226 25.3579V4.63696C44.4692 5.53339 43.0272 6.5968 41.7643 7.8591C40.7971 8.82626 39.9535 9.89374 39.2142 11.0302C41.1166 13.3983 42.6578 16.2371 43.8076 19.5039C44.504 21.4829 45.0601 23.6265 45.4712 25.9093Z" fill="#18DE6E"/>
<path id="Vector_9" d="M12.2925 60.5119H17.9326C18.8974 60.5119 19.454 61.4396 19.454 62.4416C19.454 63.2951 18.9716 64.2971 17.9326 64.2971H12.2925V71.7549H22.7933C23.7581 71.7549 24.3148 72.7568 24.3148 73.9072C24.3148 74.9092 23.8324 75.9854 22.7933 75.9854H9.58353C8.50793 75.9854 7.46887 75.4658 7.46887 74.4639V50.3822C7.46887 49.3802 8.50793 48.8607 9.58353 48.8607H22.7933C23.8324 48.8607 24.3148 49.9369 24.3148 50.9388C24.3148 52.0887 23.7581 53.0906 22.7933 53.0906H12.2925V60.5119Z" fill="#18DE6E"/>
<path id="Vector_10" d="M37.4503 52.8831C34.964 52.8831 33.5544 54.2555 33.5544 57.1501V67.5024C33.5544 70.3969 34.964 71.77 37.5245 71.77C40.9009 71.77 41.1978 69.3579 41.3091 67.7993C41.3833 66.6495 42.4224 66.2784 43.6841 66.2784C45.354 66.2784 46.1333 66.7608 46.1333 68.6528C46.1333 73.143 42.4595 75.9999 37.2648 75.9999C32.5896 75.9999 28.7302 73.6991 28.7302 67.5024V57.1501C28.7302 50.9534 32.6267 48.6526 37.3019 48.6526C42.4595 48.6526 46.1333 51.3987 46.1333 55.7028C46.1333 57.6325 45.354 58.0778 43.7212 58.0778C42.3482 58.0778 41.3462 57.6696 41.3091 56.5563C41.2349 55.4059 40.9751 52.8831 37.4503 52.8831Z" fill="#18DE6E"/>
<path id="Vector_11" d="M50.9564 67.5024V57.1501C50.9564 50.9534 54.7415 48.6526 59.6394 48.6526C64.5373 48.6526 68.3589 50.9534 68.3589 57.1501V67.5024C68.3589 73.6991 64.5373 75.9999 59.6394 75.9999C54.7415 75.9999 50.9564 73.6991 50.9564 67.5024ZM63.5353 57.1501C63.5353 54.2184 62.0509 52.8831 59.6394 52.8831C57.1902 52.8831 55.78 54.2184 55.78 57.1501V67.5024C55.78 70.4341 57.1902 71.77 59.6394 71.77C62.0509 71.77 63.5353 70.4341 63.5353 67.5024V57.1501Z" fill="#18DE6E"/>
</g>
</svg>
