<svg width="76" height="76" viewBox="0 0 76 76" fill="none" xmlns="http://www.w3.org/2000/svg">
<g id="secure 1">
<path id="Vector" d="M71.0059 10.6366C70.8694 9.65676 70.1644 8.85073 69.2113 8.5858L38.6656 0.091024C38.2301 -0.0301786 37.7702 -0.0301786 37.3344 0.091024L6.78867 8.5858C5.8356 8.85073 5.13058 9.65643 4.99414 10.6366C4.81697 11.9106 0.77523 42.0112 11.142 56.9854C21.4966 71.9417 36.7717 75.7744 37.4168 75.9304C37.6086 75.9768 37.804 75.9996 38 75.9996C38.196 75.9996 38.3914 75.9764 38.5832 75.9304C39.2286 75.7744 54.5037 71.9417 64.858 56.9854C75.2248 42.0116 71.183 11.9109 71.0059 10.6366ZM57.6981 28.2097L36.8628 49.045C36.378 49.5298 35.7422 49.7725 35.1067 49.7725C34.4712 49.7725 33.8354 49.5301 33.3506 49.045L20.4683 36.1627C20.0024 35.6971 19.7408 35.0653 19.7408 34.4066C19.7408 33.7479 20.0027 33.1161 20.4683 32.6505L23.0262 30.0926C23.9961 29.123 25.5688 29.1227 26.5384 30.0926L35.1067 38.6609L51.628 22.1393C52.0936 21.6734 52.7254 21.4118 53.3841 21.4118C54.0428 21.4118 54.6746 21.6734 55.1402 22.1393L57.6981 24.6971C58.668 25.6671 58.668 27.2397 57.6981 28.2097Z" fill="#18DE6E"/>
</g>
</svg>
