<svg width="76" height="76" viewBox="0 0 76 76" fill="none" xmlns="http://www.w3.org/2000/svg">
<g id="settings 1" clip-path="url(#clip0_39_0)">
<g id="Group">
<g id="Group_2">
<path id="Vector" d="M21.6392 38.4754C22.185 38.9121 22.4658 39.614 22.3254 40.3002L21.6704 43.7002C21.5144 44.5424 21.9823 45.3534 22.7621 45.6497L24.8832 46.4451L27.0043 47.2405C27.7841 47.5368 28.6731 47.2093 29.1098 46.4763L30.7941 43.5598C31.1529 42.9516 31.8235 42.5928 32.5253 42.624C33.5235 42.6708 34.5372 42.6396 35.5354 42.5305C36.2372 42.4525 36.9079 42.7488 37.3134 43.3259L39.2629 46.1956C39.7464 46.8974 40.6666 47.1469 41.4308 46.8038L43.4895 45.8525L45.5482 44.9011C46.328 44.5424 46.7335 43.6846 46.5152 42.858L45.6418 39.614C45.4546 38.9277 45.6886 38.2103 46.2032 37.7424C46.9519 37.0562 47.6537 36.3232 48.2775 35.5433C48.7142 34.9975 49.4161 34.7323 50.0867 34.8571L53.4867 35.5122C54.3289 35.6681 55.1399 35.2002 55.4362 34.4204L56.2316 32.2993L57.027 30.1782C57.3234 29.3984 56.9958 28.5094 56.2628 28.0727L53.3307 26.4195C52.7069 26.0764 52.3482 25.3902 52.3793 24.6728C52.4261 23.6746 52.3949 22.6764 52.2858 21.6627C52.2078 20.9609 52.5041 20.2902 53.0812 19.8847L55.9509 17.9352C56.6527 17.4517 56.9023 16.5315 56.5591 15.7673L55.6078 13.7086L54.6564 11.6499C54.2977 10.8701 53.4399 10.4646 52.6133 10.6829L49.3693 11.5563C48.683 11.7435 47.95 11.5095 47.4821 10.9793C46.7803 10.1839 46.0161 9.48203 45.2051 8.84258C44.6436 8.40589 44.3629 7.70406 44.5032 7.00223L45.1427 3.64904C45.2987 2.80684 44.8308 1.99584 44.051 1.69951L41.9299 0.904099L39.8088 0.108691C39.029 -0.187637 38.14 0.139884 37.7033 0.872907L35.9877 3.83619C35.629 4.44445 34.9739 4.78756 34.2721 4.75637C33.2584 4.70958 32.2446 4.74077 31.2308 4.86554C30.529 4.94352 29.8428 4.6472 29.4529 4.05454L27.5345 1.23162C27.0667 0.545386 26.1621 0.28025 25.3979 0.592175L23.3391 1.54355L21.3272 2.51051C20.5474 2.86923 20.1419 3.72702 20.3759 4.55362L21.2648 7.84443C21.452 8.51506 21.2337 9.24809 20.7034 9.71597C19.9548 10.4022 19.2529 11.1508 18.6291 11.9462C18.1924 12.4921 17.4906 12.7728 16.8043 12.6325L13.4355 11.993C12.5933 11.8371 11.7823 12.3049 11.486 13.0848L10.6906 15.2058L9.89519 17.3269C9.59886 18.1068 9.92638 18.9957 10.6594 19.4324L13.6227 21.148C14.2309 21.5067 14.5741 22.1618 14.5429 22.8636C14.4961 23.8774 14.5273 24.8911 14.652 25.9049C14.73 26.6067 14.4337 27.2929 13.841 27.6828L11.0337 29.57C10.3319 30.0535 10.0823 30.9736 10.4255 31.7379L11.3768 33.7966L12.3282 35.8553C12.6869 36.6351 13.5447 37.0406 14.3713 36.8222L17.6621 35.9333C18.3484 35.7461 19.0658 35.98 19.5337 36.4947C20.1887 37.2121 20.8905 37.8828 21.6392 38.4754ZM29.1721 14.66C34.1629 12.2894 40.1363 14.4104 42.5069 19.4012C44.8776 24.392 42.7565 30.3654 37.7657 32.736C32.7749 35.1067 26.8015 32.9856 24.4309 27.9948C22.0603 23.004 24.1813 17.0306 29.1721 14.66Z" fill="#18DE6E"/>
<path id="Vector_2" d="M65.7297 49.6268L64.4196 49.2057C64.1389 49.1122 63.9517 48.8782 63.9049 48.5975C63.8426 48.192 63.7334 47.7865 63.6086 47.3966C63.515 47.1314 63.5774 46.8195 63.7802 46.6168L64.7627 45.5874C64.9967 45.3379 65.0279 44.948 64.8251 44.6672L64.2636 43.9186L63.7022 43.17C63.4994 42.8893 63.1251 42.8113 62.8132 42.9672L61.5967 43.6067C61.3316 43.7471 61.0196 43.7159 60.7857 43.5443C60.4582 43.3104 60.0995 43.092 59.7251 42.9049C59.4756 42.7801 59.304 42.515 59.2884 42.2342L59.2573 40.815C59.2417 40.4718 58.9921 40.1755 58.649 40.1287L57.7288 39.9884L56.8086 39.848C56.4655 39.8012 56.138 40.004 56.0288 40.3315L55.6077 41.6416C55.5142 41.9223 55.2802 42.125 54.9839 42.1718C54.5628 42.2342 54.1417 42.3434 53.7362 42.4838C53.4555 42.5773 53.1591 42.515 52.9408 42.3122L51.927 41.3452C51.6775 41.1113 51.2876 41.0801 51.0068 41.2828L50.2582 41.8443L49.5096 42.4058C49.2289 42.6085 49.1509 42.9828 49.3069 43.2948L49.9463 44.5425C50.0711 44.792 50.0555 45.1039 49.8839 45.3379C49.65 45.681 49.4316 46.0397 49.2445 46.414C49.1197 46.6791 48.8546 46.8351 48.5738 46.8507L47.1702 46.8819C46.8271 46.8975 46.5307 47.147 46.4683 47.4746L46.328 48.3947L46.1876 49.3149C46.1408 49.658 46.3436 49.9855 46.6711 50.0947L48.0124 50.5158C48.2931 50.6094 48.4803 50.8433 48.527 51.1241C48.5894 51.5452 48.6986 51.9351 48.839 52.3406C48.9325 52.6057 48.8702 52.9176 48.6674 53.1204L47.7004 54.1341C47.4665 54.3837 47.4353 54.7736 47.6381 55.0543L48.1995 55.8029L48.761 56.5516C48.9637 56.8323 49.3381 56.9103 49.65 56.7543L50.8977 56.1149C51.1472 55.9901 51.4591 56.0057 51.6931 56.1773C52.0362 56.4112 52.3949 56.6295 52.7692 56.8167C53.0344 56.9415 53.1903 57.2066 53.2059 57.4873L53.2371 58.891C53.2527 59.2341 53.5022 59.5304 53.8454 59.5772L54.7655 59.7176L55.6857 59.858C56.0288 59.9048 56.3564 59.702 56.4655 59.3745L56.8866 58.0488C56.9802 57.7681 57.2141 57.5809 57.4949 57.5185C57.8848 57.4561 58.2747 57.347 58.649 57.2222C58.9297 57.1286 59.2261 57.191 59.4288 57.3938L60.4582 58.3763C60.7077 58.6103 61.0976 58.6415 61.3783 58.4387L62.127 57.8772L62.8756 57.3158C63.1563 57.113 63.2343 56.7387 63.0783 56.4268L62.4389 55.1947C62.2985 54.9296 62.3297 54.6332 62.5013 54.3837C62.7352 54.0562 62.9536 53.6975 63.1407 53.3231C63.2655 53.0736 63.5306 52.902 63.8114 52.8864L65.2306 52.8553C65.5737 52.8397 65.8701 52.5901 65.9168 52.247L66.0572 51.3268L66.1976 50.4066C66.2756 50.0635 66.0572 49.736 65.7297 49.6268ZM60.2866 50.391C59.9903 52.6369 57.9316 54.2277 55.6857 53.9314C53.4399 53.6351 51.849 51.5764 52.1454 49.3305C52.4417 47.0846 54.5004 45.4938 56.7463 45.7902C58.9921 46.0865 60.5829 48.1452 60.2866 50.391Z" fill="#18DE6E"/>
<path id="Vector_3" d="M47.8408 59.2497L45.8601 58.9066C45.439 58.8286 45.1115 58.5323 44.9867 58.1268C44.8151 57.5497 44.5812 56.9882 44.316 56.458C44.1289 56.0837 44.1601 55.647 44.4096 55.3038L45.6105 53.6351C45.9069 53.2296 45.8601 52.6681 45.5014 52.3094L44.55 51.358L43.5986 50.4066C43.2399 50.0479 42.6784 50.0011 42.2729 50.2819L40.6353 51.4516C40.2922 51.7011 39.8399 51.7167 39.45 51.5296C38.9197 51.2488 38.3739 51.0149 37.7968 50.8277C37.4069 50.6874 37.1106 50.3598 37.0326 49.9543L36.6895 47.9112C36.6115 47.4122 36.1748 47.0378 35.6757 47.0378H34.3189H32.962C32.4473 47.0378 32.0262 47.3966 31.9326 47.8956L31.5895 49.8608C31.5115 50.2819 31.2152 50.6094 30.7941 50.7342C30.1858 50.9213 29.6088 51.1553 29.0629 51.436C28.6886 51.6231 28.2363 51.6075 27.8932 51.358L26.24 50.1727C25.8345 49.8764 25.273 49.9231 24.9143 50.2819L23.9629 51.2332L23.0116 52.1846C22.6529 52.5433 22.6061 53.1048 22.8868 53.5103L24.0565 55.1791C24.2905 55.5222 24.3217 55.9745 24.1345 56.3332C23.8538 56.8635 23.6198 57.4249 23.4327 58.002C23.3079 58.4075 22.9648 58.6882 22.5593 58.7662L20.5474 59.0937C20.0639 59.1717 19.6896 59.6084 19.6584 60.0919V61.4488V62.8056C19.6584 63.3203 20.0171 63.7414 20.5162 63.835L22.5281 64.1781C22.9336 64.2561 23.2767 64.5524 23.4015 64.9423C23.5886 65.5194 23.807 66.0809 24.0877 66.6267C24.2749 67.001 24.2437 67.4533 24.0097 67.7808L22.8244 69.434C22.5281 69.8395 22.5749 70.401 22.9336 70.7597L23.885 71.7111L24.8363 72.6625C25.1951 73.0212 25.7565 73.068 26.162 72.7872L27.8308 71.6175C28.1739 71.3836 28.6262 71.3524 28.9849 71.5395C29.5152 71.8203 30.0767 72.0542 30.6537 72.2414C31.0592 72.3661 31.34 72.7093 31.418 73.1148L31.7455 75.1267C31.8235 75.6257 32.2601 76.0001 32.7592 76.0001H34.1161H35.473C35.9876 76.0001 36.4088 75.6413 36.5023 75.1423L36.8454 73.146C36.9234 72.7249 37.2198 72.3973 37.6253 72.2726C38.1711 72.101 38.7014 71.8827 39.2161 71.6175C39.5904 71.4304 40.0427 71.4616 40.3702 71.6955L42.039 72.8964C42.4445 73.1927 43.006 73.1459 43.3647 72.7872L44.316 71.8359L45.2674 70.8845C45.6261 70.5258 45.6729 69.9643 45.3922 69.5588L44.2381 67.9212C43.9885 67.5781 43.9729 67.1258 44.1757 66.7515C44.4564 66.2212 44.6904 65.6754 44.8775 65.0983C45.0179 64.7084 45.3454 64.4121 45.7509 64.3341L47.794 63.991C48.2931 63.913 48.6674 63.4763 48.6674 62.9772V61.6203V60.2635C48.7142 59.7644 48.3399 59.3277 47.8408 59.2497ZM34.2565 67.4533C30.9657 67.4845 28.2675 64.8332 28.2363 61.5423C28.2051 58.2515 30.8565 55.5534 34.1473 55.5222C37.4381 55.491 40.1362 58.1424 40.1674 61.4332C40.1986 64.724 37.5473 67.4221 34.2565 67.4533Z" fill="#18DE6E"/>
</g>
</g>
</g>
<defs>
<clipPath id="clip0_39_0">
<rect width="76" height="76" fill="white"/>
</clipPath>
</defs>
</svg>
