<svg width="60" height="60" viewBox="0 0 60 60" fill="none" xmlns="http://www.w3.org/2000/svg">
<g id="growth 1">
<g id="Group">
<g id="Group_2">
<path id="Vector" d="M16.8308 34.3892H11.6301C11.0095 34.3892 10.513 34.8856 10.513 35.5062V37.6659V47.1736V49.3333C10.513 49.9539 11.0095 50.4504 11.6301 50.4504H16.8308C17.4514 50.4504 17.9478 49.9539 17.9478 49.3333V47.1736V37.6659V35.5062C17.9603 34.8856 17.4514 34.3892 16.8308 34.3892Z" fill="#18DE6E"/>
<path id="Vector_2" d="M27.3438 28.1707H22.1431C21.5225 28.1707 21.0261 28.6671 21.0261 29.2877V37.6659V40.9427V49.3208C21.0261 49.9414 21.5225 50.4379 22.1431 50.4379H27.3438C27.9644 50.4379 28.4609 49.9414 28.4609 49.3208V40.9427V37.6659V29.2877C28.4609 28.6671 27.9644 28.1707 27.3438 28.1707Z" fill="#18DE6E"/>
<path id="Vector_3" d="M38.9739 31.4848V22.2254H42.5734C43.2313 22.2254 43.6409 21.4931 43.2933 20.9346L35.9702 9.18032C35.6351 8.6466 34.8655 8.6466 34.5304 9.18032L27.2073 20.9346C26.8597 21.4931 27.2569 22.2254 27.9272 22.2254H31.5267V49.3334C31.5267 49.954 32.0232 50.4505 32.6438 50.4505H37.8444C38.465 50.4505 38.9615 49.954 38.9615 49.3334C36.8763 46.9379 35.5978 43.8224 35.5978 40.3967C35.6227 36.9957 36.8887 33.868 38.9739 31.4848Z" fill="#18DE6E"/>
<path id="Vector_4" d="M49.2015 29.623C43.2437 29.623 38.403 34.4513 38.403 40.4216C38.403 46.3794 43.2312 51.2201 49.2015 51.2201C55.1593 51.2201 60 46.3918 60 40.4216C60 34.4513 55.1717 29.623 49.2015 29.623ZM52.3045 44.6665C51.8328 45.2374 51.2246 45.6222 50.5047 45.8208C50.1944 45.9077 50.0579 46.0691 50.0703 46.3918C50.0827 46.7145 50.0703 47.0248 50.0703 47.3475C50.0703 47.633 49.9214 47.7819 49.6483 47.7943C49.3008 47.8067 48.9656 47.8067 48.6181 47.7943C48.3202 47.7943 48.1713 47.6206 48.1713 47.3227C48.1713 47.0868 48.1713 46.851 48.1588 46.6276C48.1588 46.1187 48.134 46.0939 47.6375 46.0194C47.0045 45.9201 46.3839 45.7712 45.8005 45.4981C45.3413 45.2747 45.3041 45.163 45.4282 44.6913C45.5275 44.3314 45.6268 43.9838 45.7385 43.6363C45.8626 43.2267 45.9743 43.177 46.3467 43.3756C46.9921 43.7108 47.6624 43.8969 48.3823 43.9838C48.8415 44.0459 49.2883 43.9962 49.7104 43.8101C50.5047 43.4625 50.6288 42.544 49.9586 41.9855C49.7352 41.7993 49.4745 41.6628 49.2015 41.5386C48.5064 41.2283 47.7741 41.0049 47.1286 40.6077C46.0612 39.9747 45.3909 39.0935 45.4654 37.7902C45.5523 36.3256 46.3839 35.4071 47.7244 34.923C48.283 34.7244 48.283 34.7244 48.283 34.1535C48.283 33.9549 48.283 33.7563 48.283 33.5701C48.2954 33.1357 48.3698 33.0612 48.8043 33.0488C48.9408 33.0488 49.0773 33.0488 49.2139 33.0488C50.1448 33.0488 50.1448 33.0488 50.1448 33.9797C50.1448 34.6375 50.1448 34.6375 50.8026 34.7368C51.2991 34.8113 51.7832 34.9602 52.2424 35.1712C52.5031 35.283 52.59 35.4567 52.5155 35.7298C52.4038 36.127 52.2921 36.5366 52.1679 36.9338C52.0438 37.3061 51.9321 37.3682 51.5722 37.1944C50.8523 36.8469 50.0951 36.6979 49.2883 36.7476C49.0773 36.76 48.8787 36.7848 48.6802 36.8717C47.9851 37.1696 47.8734 37.9391 48.4691 38.4108C48.767 38.6466 49.1022 38.8204 49.4621 38.9693C50.0703 39.2176 50.6909 39.4658 51.2743 39.7885C53.1113 40.7567 53.6077 43.0902 52.3045 44.6665Z" fill="#18DE6E"/>
<path id="Vector_5" d="M6.31775 41.8984H1.11709C0.496483 41.8984 0 42.3949 0 43.0155V43.2265V45.1752V47.1736V47.9183V49.3333C0 49.9539 0.496483 50.4504 1.11709 50.4504H6.31775C6.93835 50.4504 7.43484 49.9539 7.43484 49.3333V47.9183V47.1736V45.1752V43.4996V43.0155C7.44725 42.3949 6.93835 41.8984 6.31775 41.8984Z" fill="#18DE6E"/>
</g>
</g>
</g>
</svg>
