<svg width="55" height="55" viewBox="0 0 55 55" fill="none" xmlns="http://www.w3.org/2000/svg">
<g id="battery 1">
<path id="Vector" d="M41.028 5.8212H37.745V2.9728C37.745 1.3336 36.4114 0 34.7722 0H20.2277C18.5885 0 17.2549 1.3336 17.2549 2.9728V5.8212H13.972C11.5132 5.8212 9.51282 7.8216 9.51282 10.2804V50.5408C9.51282 52.9996 11.5132 55 13.972 55H41.028C43.4868 55 45.4872 52.9996 45.4872 50.5408V10.2804C45.4872 7.8216 43.4868 5.8212 41.028 5.8212ZM23.4434 48.4598L26.1035 35.8233C26.125 35.7202 26.099 35.6127 26.0318 35.5292C25.9674 35.4514 25.8646 35.4021 25.7605 35.4021H21.0587L31.5088 19.5596L28.8609 31.4722C28.8381 31.5755 28.8631 31.6822 28.9295 31.7641C28.9981 31.8503 29.0971 31.8977 29.2038 31.8977H33.9228L23.4434 48.4598ZM41.028 14.0881H13.972V10.2804H41.028V14.0881Z" fill="white"/>
</g>
</svg>
