<svg width="28" height="28" viewBox="0 0 28 28" fill="none" xmlns="http://www.w3.org/2000/svg">
<g id="price-tag 1" clip-path="url(#clip0_35_2)">
<g id="Group">
<path id="Vector" d="M27.2719 4.19916C28.2317 3.23941 28.2317 1.67883 27.2719 0.719082C26.3122 -0.24067 24.7516 -0.24067 23.7918 0.719082L18.3407 6.178H11.3799L0.00830078 17.5409L8.12925 25.6619L19.516 14.2911V7.3301L20.9497 5.88065C22.554 6.94136 24.7211 6.74995 26.1118 5.35924L27.2719 4.19916ZM13.4595 15.6915L12.2995 14.5314C12.6192 14.211 12.6192 13.6911 12.2995 13.3706C11.9807 13.0518 11.4583 13.0509 11.1395 13.3714C10.8198 13.6911 10.8198 14.211 11.1395 14.5314C12.0992 15.4912 12.0992 17.0518 11.1395 18.0115C10.4722 18.6788 9.41999 18.977 8.35589 18.4743L7.07861 19.7515L5.91858 18.5915L7.19646 17.3136C6.76655 16.4006 6.90573 15.2854 7.65782 14.5314L8.81944 15.6915C8.49978 16.0111 8.49978 16.5318 8.81944 16.8515C9.1391 17.1727 9.6598 17.1712 9.97946 16.8515C10.2991 16.5318 10.2991 16.0111 9.97946 15.6915C9.01971 14.7317 9.01971 13.1703 9.97946 12.2106C10.7341 11.4573 11.8496 11.3182 12.7621 11.748L14.0395 10.4706L15.1996 11.6306L13.9224 12.9078C14.3532 13.8215 14.2136 14.9374 13.4595 15.6915ZM22.1503 4.67983L24.9518 1.87911C25.2723 1.55868 25.7914 1.55868 26.1119 1.87911C26.4315 2.19877 26.4315 2.71947 26.1119 3.03913L24.9518 4.19916C24.1948 4.95623 23.0652 5.11647 22.1503 4.67983Z" fill="#0F0F10"/>
<path id="Vector_2" d="M21.1566 8.79529V14.9711L10.6711 25.4407L10.533 26.5705L21.937 28L23.8364 12.2249L21.1566 8.79529Z" fill="#0F0F10"/>
</g>
</g>
<defs>
<clipPath id="clip0_35_2">
<rect width="28" height="28" fill="white"/>
</clipPath>
</defs>
</svg>
