<svg width="65.000000" height="65.000000" viewBox="0 0 65 65" fill="none" xmlns="http://www.w3.org/2000/svg" xmlns:xlink="http://www.w3.org/1999/xlink">
	<desc>
			Created with Pixso.
	</desc>
	<defs>
		<clipPath id="clip24_0">
			<rect id="group 1" width="65.000000" height="65.000000" fill="white" fill-opacity="0"/>
		</clipPath>
	</defs>
	<rect id="group 1" width="65.000000" height="65.000000" fill="#FFFFFF" fill-opacity="0"/>
	<g clip-path="url(#clip24_0)">
		<path id="Vector" d="M55.61 34.69L50.59 34.69C51.1 36.1 51.38 37.61 51.38 39.19L51.38 58.19C51.38 58.85 51.26 59.48 51.05 60.06L59.37 60.06C62.47 60.06 65 57.54 65 54.43L65 44.08C65 38.9 60.79 34.69 55.61 34.69Z" fill="#FFFFFF" fill-opacity="1.000000" fill-rule="nonzero"/>
		<path id="Vector" d="M13.61 39.19C13.61 37.61 13.89 36.1 14.41 34.69L9.38 34.69C4.2 34.69 0 38.9 0 44.08L0 54.43C0 57.54 2.52 60.06 5.62 60.06L13.94 60.06C13.73 59.48 13.61 58.85 13.61 58.19L13.61 39.19Z" fill="#FFFFFF" fill-opacity="1.000000" fill-rule="nonzero"/>
		<path id="Vector" d="M38.24 29.81L26.75 29.81C21.58 29.81 17.37 34.01 17.37 39.19L17.37 58.19C17.37 59.22 18.21 60.06 19.24 60.06L45.75 60.06C46.78 60.06 47.62 59.22 47.62 58.19L47.62 39.19C47.62 34.01 43.42 29.81 38.24 29.81Z" fill="#FFFFFF" fill-opacity="1.000000" fill-rule="nonzero"/>
		<path id="Vector" d="M32.5 4.93C26.27 4.93 21.21 9.99 21.21 16.21C21.21 20.43 23.54 24.12 26.98 26.05C28.61 26.97 30.49 27.49 32.5 27.49C34.5 27.49 36.38 26.97 38.01 26.05C41.45 24.12 43.78 20.43 43.78 16.21C43.78 9.99 38.72 4.93 32.5 4.93Z" fill="#FFFFFF" fill-opacity="1.000000" fill-rule="nonzero"/>
		<path id="Vector" d="M12.68 15.44C8.03 15.44 4.24 19.23 4.24 23.88C4.24 28.54 8.03 32.32 12.68 32.32C13.86 32.32 14.98 32.08 16.01 31.64C17.77 30.88 19.23 29.53 20.13 27.85C20.76 26.66 21.12 25.32 21.12 23.88C21.12 19.23 17.33 15.44 12.68 15.44Z" fill="#FFFFFF" fill-opacity="1.000000" fill-rule="nonzero"/>
		<path id="Vector" d="M52.31 15.44C47.66 15.44 43.87 19.23 43.87 23.88C43.87 25.32 44.23 26.66 44.86 27.85C45.76 29.53 47.22 30.88 48.98 31.64C50.01 32.08 51.13 32.32 52.31 32.32C56.96 32.32 60.75 28.54 60.75 23.88C60.75 19.23 56.96 15.44 52.31 15.44Z" fill="#FFFFFF" fill-opacity="1.000000" fill-rule="nonzero"/>
	</g>
</svg>
