<svg width="55.000000" height="55.000000" viewBox="0 0 55 55" fill="none" xmlns="http://www.w3.org/2000/svg" xmlns:xlink="http://www.w3.org/1999/xlink">
	<desc>
			Created with Pixso.
	</desc>
	<defs>
		<clipPath id="clip24_34">
			<rect id="information 1" width="55.000000" height="55.000000" fill="white" fill-opacity="0"/>
		</clipPath>
	</defs>
	<rect id="information 1" width="55.000000" height="55.000000" fill="#FFFFFF" fill-opacity="0"/>
	<g clip-path="url(#clip24_34)">
		<path id="Vector" d="M14.6 19.33C10.16 19.33 6.44 22.95 6.44 27.39C6.44 31.83 10.16 35.44 14.6 35.44C19.05 35.44 22.77 31.83 22.77 27.39C22.77 22.95 19.05 19.33 14.6 19.33Z" fill="#FFFFFF" fill-opacity="1.000000" fill-rule="nonzero"/>
		<path id="Vector" d="M40.49 0C32.5 0 25.99 6.5 25.99 14.5C25.99 16.99 26.63 19.43 27.84 21.58L26.07 26.88C25.89 27.44 26.02 28.05 26.42 28.48C26.83 28.93 27.44 29.09 27.99 28.95L33.98 27.46C35.99 28.47 38.23 29 40.49 29C48.49 29 55 22.49 55 14.5C55 6.5 48.49 0 40.49 0ZM42.1 20.94C42.1 21.83 41.38 22.55 40.49 22.55C39.6 22.55 38.88 21.83 38.88 20.94L38.88 14.5C38.88 13.61 39.6 12.89 40.49 12.89C41.38 12.89 42.1 13.61 42.1 14.5L42.1 20.94ZM40.49 11.27C39.6 11.27 38.88 10.55 38.88 9.66C38.88 8.77 39.6 8.05 40.49 8.05C41.38 8.05 42.1 8.77 42.1 9.66C42.1 10.55 41.38 11.27 40.49 11.27Z" fill="#FFFFFF" fill-opacity="1.000000" fill-rule="nonzero"/>
		<path id="Vector" d="M23.06 34.9C20.99 37.2 17.93 38.67 14.6 38.67C11.28 38.67 8.22 37.2 6.15 34.9C2.44 37.53 0 41.84 0 46.72L0 53.38C0 54.27 0.72 55 1.61 55L27.6 55C28.49 55 29.21 54.27 29.21 53.38L29.21 46.72C29.21 41.84 26.77 37.53 23.06 34.9Z" fill="#FFFFFF" fill-opacity="1.000000" fill-rule="nonzero"/>
	</g>
</svg>
