<svg width="35.974365" height="55.000000" viewBox="0 0 35.9744 55" fill="none" xmlns="http://www.w3.org/2000/svg" xmlns:xlink="http://www.w3.org/1999/xlink">
	<desc>
			Created with Pixso.
	</desc>
	<defs/>
	<path id="Vector" d="M31.51 5.82L28.23 5.82L28.23 2.97C28.23 1.33 26.89 0 25.25 0L10.71 0C9.07 0 7.74 1.33 7.74 2.97L7.74 5.82L4.45 5.82C2 5.82 0 7.82 0 10.28L0 50.54C0 52.99 2 55 4.45 55L31.51 55C33.97 55 35.97 52.99 35.97 50.54L35.97 10.28C35.97 7.82 33.97 5.82 31.51 5.82ZM13.93 48.45L16.59 35.82C16.61 35.72 16.58 35.61 16.51 35.52C16.45 35.45 16.35 35.4 16.24 35.4L11.54 35.4L21.99 19.55L19.34 31.47C19.32 31.57 19.35 31.68 19.41 31.76C19.48 31.85 19.58 31.89 19.69 31.89L24.41 31.89L13.93 48.45ZM31.51 14.08L4.45 14.08L4.45 10.28L31.51 10.28L31.51 14.08Z" fill="#FFFFFF" fill-opacity="1.000000" fill-rule="nonzero"/>
</svg>
